G04 EasyPC Gerber Version 21.0.3 Build 4286 *
G04 #@! TF.Part,Single*
G04 #@! TF.FileFunction,Legend,Top *
G04 #@! TF.FilePolarity,Positive *
%FSLAX35Y35*%
%MOIN*%
%ADD73C,0.00100*%
%ADD72C,0.00394*%
%ADD100C,0.00591*%
%ADD75C,0.01000*%
%ADD107C,0.01969*%
X0Y0D02*
D02*
D72*
X163238Y54536D02*
X164469Y51583D01*
X165699Y54536*
X167667Y51583D02*
X168652D01*
X168159D02*
Y54536D01*
X167667Y54044*
X171358Y51583D02*
X171604Y51830D01*
X171358Y52076*
X171112Y51830*
X171358Y51583*
X175295Y51830D02*
X175787Y51583D01*
X176280*
X176772Y51830*
X177018Y52322*
Y53798*
X176772Y54290*
X176280Y54536*
X175787*
X175295Y54290*
X175049Y53798*
Y52322*
X175295Y51830*
X176772Y54290*
X182923Y51583D02*
X185384Y54536D01*
X191043Y51830D02*
X191535Y51583D01*
X192028*
X192520Y51830*
X192766Y52322*
Y53798*
X192520Y54290*
X192028Y54536*
X191535*
X191043Y54290*
X190797Y53798*
Y52322*
X191043Y51830*
X192520Y54290*
X194734Y51830D02*
X195226Y51583D01*
X195965*
X196457Y51830*
X196703Y52322*
Y52568*
X196457Y53060*
X195965Y53306*
X194734*
Y54536*
X196703*
X198917Y51583D02*
X199163Y51830D01*
X198917Y52076*
X198671Y51830*
X198917Y51583*
X202854Y51830D02*
X203346Y51583D01*
X203839*
X204331Y51830*
X204577Y52322*
Y53798*
X204331Y54290*
X203839Y54536*
X203346*
X202854Y54290*
X202608Y53798*
Y52322*
X202854Y51830*
X204331Y54290*
X206545Y51583D02*
X208514Y54536D01*
X206545*
X210728Y51583D02*
X210974Y51830D01*
X210728Y52076*
X210482Y51830*
X210728Y51583*
X216388D02*
X214419D01*
X216142Y53306*
X216388Y53798*
X216142Y54290*
X215650Y54536*
X214911*
X214419Y54290*
X218848Y51583D02*
X219833D01*
X219341D02*
Y54536D01*
X218848Y54044*
D02*
D73*
X36738Y195673D02*
Y193459D01*
X36984Y192967*
X37476Y192720*
X38461*
X38953Y192967*
X39199Y193459*
Y195673*
X40675Y193459D02*
X40921Y192967D01*
X41413Y192720*
X42398*
X42890Y192967*
X43136Y193459*
X42890Y193951*
X42398Y194197*
X41413*
X40921Y194443*
X40675Y194935*
X40921Y195427*
X41413Y195673*
X42398*
X42890Y195427*
X43136Y194935*
X46335Y194197D02*
X46827Y193951D01*
X47073Y193459*
X46827Y192967*
X46335Y192720*
X44612*
Y195673*
X46335*
X46827Y195427*
X47073Y194935*
X46827Y194443*
X46335Y194197*
X44612*
X52486Y192720D02*
Y195673D01*
X54209*
X54701Y195427*
X54947Y194935*
X54701Y194443*
X54209Y194197*
X52486*
X56423Y193705D02*
Y194689D01*
X56669Y195181*
X56915Y195427*
X57407Y195673*
X57900*
X58392Y195427*
X58638Y195181*
X58884Y194689*
Y193705*
X58638Y193213*
X58392Y192967*
X57900Y192720*
X57407*
X56915Y192967*
X56669Y193213*
X56423Y193705*
X60360Y195673D02*
X60606Y192720D01*
X61591Y194197*
X62575Y192720*
X62821Y195673*
X64297Y192720D02*
Y195673D01*
X66758*
X66266Y194197D02*
X64297D01*
Y192720D02*
X66758D01*
X68234D02*
Y195673D01*
X69957*
X70449Y195427*
X70695Y194935*
X70449Y194443*
X69957Y194197*
X68234*
X69957D02*
X70695Y192720D01*
X103140Y255693D02*
X103355Y255685D01*
X103570Y255677*
X103778Y255654*
X103978Y255616*
X104178Y255577*
X104370Y255524*
X104562Y255462*
X104747Y255393*
X104924Y255316*
X105093Y255224*
X105262Y255124*
X105424Y255016*
X105585Y254900*
X105739Y254778*
X105885Y254639*
X106031Y254493*
X106169Y254339*
X106293Y254178*
X106415Y254016*
X106523Y253847*
X106623Y253670*
X106715Y253486*
X106800Y253293*
X106877Y253101*
X106939Y252901*
X107000Y252694*
X107046Y252486*
X107085Y252263*
X107115Y252040*
X107138Y251809*
X107154Y251571*
Y251333*
Y251087*
X107138Y250856*
X107115Y250625*
X107085Y250402*
X107046Y250179*
X106992Y249972*
X106939Y249764*
X106869Y249564*
X106800Y249372*
X106715Y249180*
X106623Y249003*
X106515Y248826*
X106408Y248657*
X106293Y248487*
X106162Y248334*
X106023Y248180*
X105877Y248034*
X105731Y247903*
X105578Y247772*
X105416Y247657*
X105254Y247550*
X105085Y247457*
X104916Y247365*
X104739Y247288*
X104555Y247219*
X104363Y247157*
X104170Y247104*
X103978Y247065*
X103770Y247034*
X103563Y247011*
X103355Y246996*
X103140Y246988*
X102909Y246996*
X102694Y247011*
X102478Y247034*
X102271Y247065*
X102071Y247111*
X101871Y247165*
X101679Y247226*
X101494Y247296*
X101317Y247380*
X101141Y247472*
X100971Y247572*
X100810Y247688*
X100648Y247803*
X100494Y247934*
X100348Y248072*
X100210Y248226*
X100072Y248380*
X99949Y248541*
X99833Y248703*
X99726Y248872*
X99626Y249049*
X99533Y249226*
X99449Y249410*
X99380Y249595*
X99311Y249787*
X99257Y249979*
X99211Y250179*
X99172Y250379*
X99141Y250587*
X99118Y250802*
X99103Y251017*
Y251241*
Y251494*
X99118Y251740*
X99141Y251986*
X99172Y252217*
X99211Y252448*
X99257Y252670*
X99318Y252886*
X99380Y253094*
X99457Y253293*
X99541Y253486*
X99633Y253670*
X99733Y253855*
X99841Y254024*
X99956Y254193*
X100087Y254347*
X100226Y254501*
X100364Y254647*
X100518Y254778*
X100664Y254908*
X100825Y255024*
X100987Y255131*
X101156Y255231*
X101333Y255316*
X101510Y255393*
X101694Y255462*
X101887Y255524*
X102079Y255577*
X102286Y255616*
X102486Y255654*
X102702Y255677*
X102917Y255685*
X103140Y255693*
X103124Y247942D02*
X103440Y247957D01*
X103732Y247995*
X104017Y248072*
X104285Y248165*
X104539Y248295*
X104770Y248449*
X104993Y248626*
X105201Y248841*
X105385Y249072*
X105546Y249333*
X105685Y249610*
X105800Y249910*
X105885Y250233*
X105946Y250579*
X105985Y250941*
X106000Y251333*
X105985Y251733*
X105946Y252102*
X105885Y252456*
X105800Y252786*
X105685Y253086*
X105546Y253363*
X105378Y253624*
X105185Y253855*
X104978Y254063*
X104755Y254239*
X104524Y254393*
X104270Y254516*
X104009Y254616*
X103740Y254685*
X103447Y254724*
X103148Y254739*
X102840Y254724*
X102548Y254685*
X102263Y254616*
X101994Y254524*
X101740Y254401*
X101502Y254255*
X101279Y254078*
X101071Y253870*
X100879Y253639*
X100710Y253386*
X100572Y253094*
X100456Y252778*
X100372Y252432*
X100302Y252056*
X100264Y251648*
X100256Y251217*
X100264Y250856*
X100302Y250518*
X100364Y250194*
X100456Y249895*
X100564Y249602*
X100702Y249333*
X100864Y249080*
X101056Y248849*
X101256Y248634*
X101479Y248449*
X101717Y248295*
X101971Y248172*
X102232Y248072*
X102517Y248003*
X102817Y247957*
X103124Y247942*
X109914Y247134D02*
X108738D01*
Y248311*
X109914*
Y247134*
X111867Y255546D02*
X115043D01*
X115405*
X115743Y255531*
X116050Y255508*
X116335Y255477*
X116604Y255424*
X116858Y255339*
X117104Y255231*
X117342Y255085*
X117565Y254916*
X117750Y254716*
X117911Y254493*
X118050Y254239*
X118150Y253963*
X118226Y253686*
X118273Y253409*
X118288Y253117*
X118273Y252832*
X118242Y252563*
X118180Y252309*
X118096Y252063*
X117996Y251840*
X117865Y251625*
X117711Y251433*
X117535Y251248*
X117335Y251079*
X117104Y250941*
X116850Y250817*
X116558Y250717*
X116250Y250641*
X115904Y250587*
X115535Y250556*
X115135Y250541*
X112982*
Y247134*
X111867*
Y255546*
X112982Y251540D02*
X115143D01*
X115389Y251548*
X115612Y251563*
X115820Y251594*
X116012Y251640*
X116196Y251694*
X116358Y251756*
X116504Y251840*
X116635Y251925*
X116750Y252032*
X116850Y252140*
X116935Y252271*
X117004Y252409*
X117065Y252555*
X117104Y252717*
X117127Y252894*
X117135Y253078*
X117127Y253209*
X117111Y253324*
X117096Y253440*
X117065Y253555*
X117027Y253670*
X116989Y253770*
X116935Y253878*
X116873Y253970*
X116804Y254063*
X116735Y254147*
X116666Y254224*
X116589Y254285*
X116504Y254347*
X116420Y254393*
X116335Y254424*
X116243Y254455*
X116143Y254478*
X116028Y254501*
X115904Y254516*
X115774Y254524*
X115628Y254539*
X115466Y254547*
X115305*
X115120Y254555*
X112982*
Y251540*
X121026Y247134D02*
X119849D01*
Y248311*
X121026*
Y247134*
X128223D02*
X122956D01*
Y255546*
X124070*
Y248134*
X128223*
Y247134*
X130830D02*
X129653D01*
Y248311*
X130830*
Y247134*
X139726D02*
X138473D01*
X137481Y249695*
X133974*
X133044Y247134*
X131868*
X135097Y255546*
X136297*
X139726Y247134*
X137143Y250579D02*
X137020Y250910D01*
X136904Y251225*
X136789Y251517*
X136681Y251794*
X136589Y252056*
X136497Y252294*
X136412Y252517*
X136335Y252717*
X136266Y252901*
X136205Y253070*
X136151Y253217*
X136105Y253347*
X136058Y253463*
X136028Y253555*
X135997Y253624*
X135981Y253678*
X135943Y253778*
X135912Y253878*
X135874Y253993*
X135843Y254116*
X135805Y254239*
X135766Y254378*
X135728Y254524*
X135689Y254670*
X135659*
X135574Y254255*
X135474Y253855*
X135359Y253470*
X135228Y253101*
X134290Y250579*
X137143*
X102420Y247043D02*
X103829D01*
X101976Y247137D02*
X104288D01*
X108738D02*
X109914D01*
X111867D02*
X112982D01*
X119849D02*
X121026D01*
X122956D02*
X128223D01*
X129653D02*
X130830D01*
X131869D02*
X133045D01*
X138472D02*
X139726D01*
X101668Y247230D02*
X104585D01*
X108738D02*
X109914D01*
X111867D02*
X112982D01*
X119849D02*
X121026D01*
X122956D02*
X128223D01*
X129653D02*
X130830D01*
X131905D02*
X133079D01*
X138435D02*
X139687D01*
X101435Y247324D02*
X104822D01*
X108738D02*
X109914D01*
X111867D02*
X112982D01*
X119849D02*
X121026D01*
X122956D02*
X128223D01*
X129653D02*
X130830D01*
X131941D02*
X133113D01*
X138399D02*
X139649D01*
X101246Y247418D02*
X105013D01*
X108738D02*
X109914D01*
X111867D02*
X112982D01*
X119849D02*
X121026D01*
X122956D02*
X128223D01*
X129653D02*
X130830D01*
X131976D02*
X133147D01*
X138363D02*
X139611D01*
X101074Y247511D02*
X105185D01*
X108738D02*
X109914D01*
X111867D02*
X112982D01*
X119849D02*
X121026D01*
X122956D02*
X128223D01*
X129653D02*
X130830D01*
X132013D02*
X133181D01*
X138327D02*
X139572D01*
X100926Y247605D02*
X105338D01*
X108738D02*
X109914D01*
X111867D02*
X112982D01*
X119849D02*
X121026D01*
X122956D02*
X128223D01*
X129653D02*
X130830D01*
X132048D02*
X133215D01*
X138291D02*
X139534D01*
X100794Y247699D02*
X105474D01*
X108738D02*
X109914D01*
X111867D02*
X112982D01*
X119849D02*
X121026D01*
X122956D02*
X128223D01*
X129653D02*
X130830D01*
X132085D02*
X133249D01*
X138254D02*
X139496D01*
X100663Y247793D02*
X105601D01*
X108738D02*
X109914D01*
X111867D02*
X112982D01*
X119849D02*
X121026D01*
X122956D02*
X128223D01*
X129653D02*
X130830D01*
X132120D02*
X133283D01*
X138218D02*
X139458D01*
X100551Y247886D02*
X105711D01*
X108738D02*
X109914D01*
X111867D02*
X112982D01*
X119849D02*
X121026D01*
X122956D02*
X128223D01*
X129653D02*
X130830D01*
X132156D02*
X133317D01*
X138181D02*
X139420D01*
X100446Y247980D02*
X102668D01*
X103615D02*
X105817D01*
X108738D02*
X109914D01*
X111867D02*
X112982D01*
X119849D02*
X121026D01*
X122956D02*
X128223D01*
X129653D02*
X130830D01*
X132193D02*
X133351D01*
X138145D02*
X139381D01*
X100347Y248074D02*
X102232D01*
X104020D02*
X105917D01*
X108738D02*
X109914D01*
X111867D02*
X112982D01*
X119849D02*
X121026D01*
X122956D02*
X128223D01*
X129653D02*
X130830D01*
X132228D02*
X133385D01*
X138109D02*
X139343D01*
X100263Y248167D02*
X101984D01*
X104291D02*
X106011D01*
X108738D02*
X109914D01*
X111867D02*
X112982D01*
X119849D02*
X121026D01*
X122956D02*
X124070D01*
X129653D02*
X130830D01*
X132264D02*
X133419D01*
X138073D02*
X139305D01*
X100179Y248261D02*
X101788D01*
X104473D02*
X106096D01*
X108738D02*
X109914D01*
X111867D02*
X112982D01*
X119849D02*
X121026D01*
X122956D02*
X124070D01*
X129653D02*
X130830D01*
X132300D02*
X133454D01*
X138037D02*
X139267D01*
X100094Y248355D02*
X101625D01*
X104628D02*
X106180D01*
X111867D02*
X112982D01*
X122956D02*
X124070D01*
X132336D02*
X133487D01*
X138000D02*
X139229D01*
X100020Y248448D02*
X101479D01*
X104769D02*
X106259D01*
X111867D02*
X112982D01*
X122956D02*
X124070D01*
X132372D02*
X133522D01*
X137964D02*
X139191D01*
X99948Y248542D02*
X101367D01*
X104887D02*
X106330D01*
X111867D02*
X112982D01*
X122956D02*
X124070D01*
X132408D02*
X133556D01*
X137928D02*
X139152D01*
X99881Y248636D02*
X101254D01*
X105002D02*
X106394D01*
X111867D02*
X112982D01*
X122956D02*
X124070D01*
X132444D02*
X133590D01*
X137891D02*
X139114D01*
X99817Y248730D02*
X101167D01*
X105093D02*
X106454D01*
X111867D02*
X112982D01*
X122956D02*
X124070D01*
X132480D02*
X133624D01*
X137855D02*
X139076D01*
X99757Y248823D02*
X101080D01*
X105183D02*
X106514D01*
X111867D02*
X112982D01*
X122956D02*
X124070D01*
X132516D02*
X133658D01*
X137819D02*
X139038D01*
X99700Y248917D02*
X100999D01*
X105261D02*
X106571D01*
X111867D02*
X112982D01*
X122956D02*
X124070D01*
X132552D02*
X133692D01*
X137782D02*
X139000D01*
X99647Y249011D02*
X100921D01*
X105336D02*
X106627D01*
X111867D02*
X112982D01*
X122956D02*
X124070D01*
X132588D02*
X133726D01*
X137746D02*
X138961D01*
X99597Y249104D02*
X100848D01*
X105405D02*
X106676D01*
X111867D02*
X112982D01*
X122956D02*
X124070D01*
X132624D02*
X133760D01*
X137710D02*
X138923D01*
X99548Y249198D02*
X100789D01*
X105463D02*
X106724D01*
X111867D02*
X112982D01*
X122956D02*
X124070D01*
X132660D02*
X133794D01*
X137674D02*
X138885D01*
X99503Y249292D02*
X100729D01*
X105521D02*
X106765D01*
X111867D02*
X112982D01*
X122956D02*
X124070D01*
X132696D02*
X133828D01*
X137637D02*
X138847D01*
X99460Y249385D02*
X100676D01*
X105572D02*
X106805D01*
X111867D02*
X112982D01*
X122956D02*
X124070D01*
X132732D02*
X133862D01*
X137601D02*
X138809D01*
X99423Y249479D02*
X100627D01*
X105619D02*
X106839D01*
X111867D02*
X112982D01*
X122956D02*
X124070D01*
X132768D02*
X133896D01*
X137565D02*
X138770D01*
X99388Y249573D02*
X100579D01*
X105666D02*
X106872D01*
X111867D02*
X112982D01*
X122956D02*
X124070D01*
X132804D02*
X133930D01*
X137528D02*
X138732D01*
X99354Y249667D02*
X100540D01*
X105707D02*
X106905D01*
X111867D02*
X112982D01*
X122956D02*
X124070D01*
X132840D02*
X133964D01*
X137492D02*
X138694D01*
X99320Y249760D02*
X100506D01*
X105743D02*
X106937D01*
X111867D02*
X112982D01*
X122956D02*
X124070D01*
X132876D02*
X138656D01*
X99292Y249854D02*
X100471D01*
X105779D02*
X106962D01*
X111867D02*
X112982D01*
X122956D02*
X124070D01*
X132912D02*
X138618D01*
X99265Y249948D02*
X100440D01*
X105810D02*
X106986D01*
X111867D02*
X112982D01*
X122956D02*
X124070D01*
X132948D02*
X138580D01*
X99243Y250041D02*
X100411D01*
X105835D02*
X107010D01*
X111867D02*
X112982D01*
X122956D02*
X124070D01*
X132984D02*
X138541D01*
X99221Y250135D02*
X100382D01*
X105859D02*
X107035D01*
X111867D02*
X112982D01*
X122956D02*
X124070D01*
X133020D02*
X138503D01*
X99201Y250229D02*
X100357D01*
X105884D02*
X107055D01*
X111867D02*
X112982D01*
X122956D02*
X124070D01*
X133056D02*
X138465D01*
X99183Y250322D02*
X100339D01*
X105901D02*
X107071D01*
X111867D02*
X112982D01*
X122956D02*
X124070D01*
X133092D02*
X138427D01*
X99167Y250416D02*
X100322D01*
X105918D02*
X107087D01*
X111867D02*
X112982D01*
X122956D02*
X124070D01*
X133128D02*
X138389D01*
X99153Y250510D02*
X100304D01*
X105934D02*
X107100D01*
X111867D02*
X112982D01*
X122956D02*
X124070D01*
X133164D02*
X138350D01*
X99139Y250604D02*
X100293D01*
X105949D02*
X107112D01*
X111867D02*
X116013D01*
X122956D02*
X124070D01*
X133200D02*
X134299D01*
X137133D02*
X138312D01*
X99130Y250697D02*
X100282D01*
X105959D02*
X107122D01*
X111867D02*
X116478D01*
X122956D02*
X124070D01*
X133235D02*
X134334D01*
X137099D02*
X138274D01*
X99119Y250791D02*
X100271D01*
X105969D02*
X107132D01*
X111867D02*
X116773D01*
X122956D02*
X124070D01*
X133272D02*
X134369D01*
X137064D02*
X138235D01*
X99112Y250885D02*
X100263D01*
X105979D02*
X107140D01*
X111867D02*
X116989D01*
X122956D02*
X124070D01*
X133307D02*
X134404D01*
X137029D02*
X138197D01*
X99106Y250978D02*
X100261D01*
X105987D02*
X107146D01*
X111867D02*
X117167D01*
X122956D02*
X124070D01*
X133343D02*
X134438D01*
X136994D02*
X138159D01*
X99103Y251072D02*
X100259D01*
X105990D02*
X107153D01*
X111867D02*
X117324D01*
X122956D02*
X124070D01*
X133380D02*
X134473D01*
X136960D02*
X138121D01*
X99103Y251166D02*
X100257D01*
X105994D02*
X107154D01*
X111867D02*
X117437D01*
X122956D02*
X124070D01*
X133415D02*
X134508D01*
X136926D02*
X138083D01*
X99103Y251259D02*
X100257D01*
X105998D02*
X107154D01*
X111867D02*
X117546D01*
X122956D02*
X124070D01*
X133452D02*
X134543D01*
X136891D02*
X138044D01*
X99103Y251353D02*
X100259D01*
X106000D02*
X107154D01*
X111867D02*
X117635D01*
X122956D02*
X124070D01*
X133487D02*
X134578D01*
X136854D02*
X138006D01*
X99103Y251447D02*
X100260D01*
X105996D02*
X107154D01*
X111867D02*
X117723D01*
X122956D02*
X124070D01*
X133523D02*
X134613D01*
X136817D02*
X137968D01*
X99106Y251541D02*
X100262D01*
X105993D02*
X107154D01*
X111867D02*
X112982D01*
X115155D02*
X117798D01*
X122956D02*
X124070D01*
X133559D02*
X134647D01*
X136780D02*
X137930D01*
X99111Y251634D02*
X100263D01*
X105989D02*
X107150D01*
X111867D02*
X112982D01*
X115987D02*
X117871D01*
X122956D02*
X124070D01*
X133595D02*
X134682D01*
X136743D02*
X137892D01*
X99117Y251728D02*
X100271D01*
X105985D02*
X107143D01*
X111867D02*
X112982D01*
X116285D02*
X117928D01*
X122956D02*
X124070D01*
X133631D02*
X134717D01*
X136707D02*
X137854D01*
X99126Y251822D02*
X100280D01*
X105976D02*
X107137D01*
X111867D02*
X112982D01*
X116472D02*
X117985D01*
X122956D02*
X124070D01*
X133667D02*
X134752D01*
X136671D02*
X137815D01*
X99135Y251915D02*
X100289D01*
X105966D02*
X107128D01*
X111867D02*
X112982D01*
X116620D02*
X118030D01*
X122956D02*
X124070D01*
X133703D02*
X134787D01*
X136638D02*
X137777D01*
X99144Y252009D02*
X100298D01*
X105956D02*
X107119D01*
X111867D02*
X112982D01*
X116725D02*
X118072D01*
X122956D02*
X124070D01*
X133739D02*
X134822D01*
X136606D02*
X137739D01*
X99157Y252103D02*
X100311D01*
X105946D02*
X107107D01*
X111867D02*
X112982D01*
X116815D02*
X118109D01*
X122956D02*
X124070D01*
X133775D02*
X134857D01*
X136571D02*
X137701D01*
X99169Y252196D02*
X100328D01*
X105930D02*
X107094D01*
X111867D02*
X112982D01*
X116887D02*
X118142D01*
X122956D02*
X124070D01*
X133811D02*
X134891D01*
X136535D02*
X137663D01*
X99184Y252290D02*
X100346D01*
X105914D02*
X107080D01*
X111867D02*
X112982D01*
X116944D02*
X118174D01*
X122956D02*
X124070D01*
X133847D02*
X134926D01*
X136498D02*
X137624D01*
X99200Y252384D02*
X100363D01*
X105898D02*
X107064D01*
X111867D02*
X112982D01*
X116991D02*
X118198D01*
X122956D02*
X124070D01*
X133883D02*
X134961D01*
X136463D02*
X137586D01*
X99217Y252478D02*
X100383D01*
X105880D02*
X107048D01*
X111867D02*
X112982D01*
X117033D02*
X118221D01*
X122956D02*
X124070D01*
X133919D02*
X134996D01*
X136427D02*
X137548D01*
X99236Y252571D02*
X100406D01*
X105856D02*
X107027D01*
X111867D02*
X112982D01*
X117069D02*
X118243D01*
X122956D02*
X124070D01*
X133955D02*
X135031D01*
X136391D02*
X137510D01*
X99256Y252665D02*
X100429D01*
X105831D02*
X107006D01*
X111867D02*
X112982D01*
X117092D02*
X118254D01*
X122956D02*
X124070D01*
X133991D02*
X135066D01*
X136356D02*
X137472D01*
X99282Y252759D02*
X100452D01*
X105807D02*
X106981D01*
X111867D02*
X112982D01*
X117109D02*
X118265D01*
X122956D02*
X124070D01*
X134027D02*
X135100D01*
X136320D02*
X137433D01*
X99309Y252852D02*
X100483D01*
X105775D02*
X106953D01*
X111867D02*
X112982D01*
X117122D02*
X118274D01*
X122956D02*
X124070D01*
X134063D02*
X135135D01*
X136285D02*
X137395D01*
X99336Y252946D02*
X100518D01*
X105739D02*
X106925D01*
X111867D02*
X112982D01*
X117129D02*
X118279D01*
X122956D02*
X124070D01*
X134099D02*
X135170D01*
X136250D02*
X137357D01*
X99364Y253040D02*
X100552D01*
X105703D02*
X106896D01*
X111867D02*
X112982D01*
X117133D02*
X118284D01*
X122956D02*
X124070D01*
X134135D02*
X135205D01*
X136216D02*
X137319D01*
X99395Y253133D02*
X100591D01*
X105661D02*
X106864D01*
X111867D02*
X112982D01*
X117131D02*
X118287D01*
X122956D02*
X124070D01*
X134171D02*
X135239D01*
X136181D02*
X137281D01*
X99431Y253227D02*
X100635D01*
X105614D02*
X106826D01*
X111867D02*
X112982D01*
X117125D02*
X118282D01*
X122956D02*
X124070D01*
X134207D02*
X135272D01*
X136147D02*
X137243D01*
X99469Y253321D02*
X100679D01*
X105567D02*
X106788D01*
X111867D02*
X112982D01*
X117112D02*
X118278D01*
X122956D02*
X124070D01*
X134243D02*
X135306D01*
X136114D02*
X137204D01*
X99510Y253415D02*
X100729D01*
X105513D02*
X106747D01*
X111867D02*
X112982D01*
X117100D02*
X118272D01*
X122956D02*
X124070D01*
X134279D02*
X135339D01*
X136078D02*
X137166D01*
X99553Y253508D02*
X100792D01*
X105452D02*
X106704D01*
X111867D02*
X112982D01*
X117078D02*
X118256D01*
X122956D02*
X124070D01*
X134315D02*
X135370D01*
X136043D02*
X137128D01*
X99600Y253602D02*
X100854D01*
X105392D02*
X106657D01*
X111867D02*
X112982D01*
X117050D02*
X118241D01*
X122956D02*
X124070D01*
X134351D02*
X135398D01*
X136007D02*
X137090D01*
X99647Y253696D02*
X100926D01*
X105318D02*
X106609D01*
X111867D02*
X112982D01*
X117017D02*
X118224D01*
X122956D02*
X124070D01*
X134387D02*
X135426D01*
X135975D02*
X137052D01*
X99698Y253789D02*
X101004D01*
X105240D02*
X106556D01*
X111867D02*
X112982D01*
X116979D02*
X118198D01*
X122956D02*
X124070D01*
X134423D02*
X135454D01*
X135939D02*
X137013D01*
X99752Y253883D02*
X101084D01*
X105157D02*
X106500D01*
X111867D02*
X112982D01*
X116931D02*
X118172D01*
X122956D02*
X124070D01*
X134459D02*
X135481D01*
X135911D02*
X136975D01*
X99811Y253977D02*
X101178D01*
X105063D02*
X106441D01*
X111867D02*
X112982D01*
X116868D02*
X118144D01*
X122956D02*
X124070D01*
X134494D02*
X135504D01*
X135880D02*
X136937D01*
X99872Y254070D02*
X101272D01*
X104968D02*
X106374D01*
X111867D02*
X112982D01*
X116798D02*
X118111D01*
X122956D02*
X124070D01*
X134531D02*
X135528D01*
X135855D02*
X136898D01*
X99937Y254164D02*
X101388D01*
X104850D02*
X106303D01*
X111867D02*
X112982D01*
X116719D02*
X118077D01*
X122956D02*
X124070D01*
X134567D02*
X135551D01*
X135828D02*
X136860D01*
X100011Y254258D02*
X101507D01*
X104727D02*
X106231D01*
X111867D02*
X112982D01*
X116623D02*
X118039D01*
X122956D02*
X124070D01*
X134602D02*
X135575D01*
X135800D02*
X136822D01*
X100091Y254352D02*
X101660D01*
X104586D02*
X106158D01*
X111867D02*
X112982D01*
X116495D02*
X117989D01*
X122956D02*
X124070D01*
X134639D02*
X135594D01*
X135773D02*
X136784D01*
X100176Y254445D02*
X101832D01*
X104416D02*
X106074D01*
X111867D02*
X112982D01*
X116271D02*
X117937D01*
X122956D02*
X124070D01*
X134674D02*
X135613D01*
X135748D02*
X136746D01*
X100262Y254539D02*
X102039D01*
X104210D02*
X105985D01*
X111867D02*
X112982D01*
X115636D02*
X117878D01*
X122956D02*
X124070D01*
X134711D02*
X135632D01*
X135724D02*
X136707D01*
X100350Y254633D02*
X102331D01*
X103944D02*
X105891D01*
X111867D02*
X117810D01*
X122956D02*
X124070D01*
X134746D02*
X135651D01*
X135699D02*
X136669D01*
X100457Y254726D02*
X102895D01*
X103393D02*
X105793D01*
X111867D02*
X117741D01*
X122956D02*
X124070D01*
X134782D02*
X136631D01*
X100565Y254820D02*
X105686D01*
X111867D02*
X117654D01*
X122956D02*
X124070D01*
X134819D02*
X136593D01*
X100672Y254914D02*
X105566D01*
X111867D02*
X117568D01*
X122956D02*
X124070D01*
X134854D02*
X136555D01*
X100803Y255007D02*
X105435D01*
X111867D02*
X117444D01*
X122956D02*
X124070D01*
X134890D02*
X136517D01*
X100942Y255101D02*
X105296D01*
X111867D02*
X117316D01*
X122956D02*
X124070D01*
X134926D02*
X136478D01*
X101094Y255195D02*
X105142D01*
X111867D02*
X117163D01*
X122956D02*
X124070D01*
X134962D02*
X136440D01*
X101276Y255289D02*
X104974D01*
X111867D02*
X116973D01*
X122956D02*
X124070D01*
X134998D02*
X136402D01*
X101486Y255382D02*
X104770D01*
X111867D02*
X116728D01*
X122956D02*
X124070D01*
X135034D02*
X136364D01*
X101738Y255476D02*
X104518D01*
X111867D02*
X116335D01*
X122956D02*
X124070D01*
X135070D02*
X136326D01*
X102052Y255570D02*
X104205D01*
X102572Y255663D02*
X103696D01*
X182801Y289965D02*
Y292917D01*
X184031Y291441*
X185262Y292917*
Y289965*
X187476D02*
X188461D01*
X187969D02*
Y292917D01*
X187476D02*
X188461D01*
X190675Y289965D02*
Y292917D01*
X192152*
X192644Y292671*
X192890Y292425*
X193136Y291933*
Y290949*
X192890Y290457*
X192644Y290211*
X192152Y289965*
X190675*
X195350D02*
X196335D01*
X195843D02*
Y292917D01*
X195350D02*
X196335D01*
X203224Y289965D02*
X204209D01*
X203717D02*
Y292917D01*
X203224D02*
X204209D01*
X206423Y289965D02*
Y292917D01*
X208884Y289965*
Y292917*
X313116Y247839D02*
X314346Y250791D01*
X315577Y247839*
X313608Y249069D02*
X315085D01*
X317053Y250791D02*
Y248577D01*
X317299Y248085*
X317791Y247839*
X318776*
X319268Y248085*
X319514Y248577*
Y250791*
X320990Y247839D02*
Y250791D01*
X322467*
X322959Y250545*
X323205Y250299*
X323451Y249807*
Y248823*
X323205Y248331*
X322959Y248085*
X322467Y247839*
X320990*
X325665D02*
X326650D01*
X326157D02*
Y250791D01*
X325665D02*
X326650D01*
X328864Y248823D02*
Y249807D01*
X329110Y250299*
X329356Y250545*
X329848Y250791*
X330341*
X330833Y250545*
X331079Y250299*
X331325Y249807*
Y248823*
X331079Y248331*
X330833Y248085*
X330341Y247839*
X329848*
X329356Y248085*
X329110Y248331*
X328864Y248823*
X337476Y247839D02*
X338461D01*
X337969D02*
Y250791D01*
X337476D02*
X338461D01*
X340675Y247839D02*
Y250791D01*
X343136Y247839*
Y250791*
X313116Y266736D02*
X314346Y269689D01*
X315577Y266736*
X313608Y267967D02*
X315085D01*
X317053Y269689D02*
Y267474D01*
X317299Y266982*
X317791Y266736*
X318776*
X319268Y266982*
X319514Y267474*
Y269689*
X320990Y266736D02*
Y269689D01*
X322467*
X322959Y269443*
X323205Y269197*
X323451Y268705*
Y267720*
X323205Y267228*
X322959Y266982*
X322467Y266736*
X320990*
X325665D02*
X326650D01*
X326157D02*
Y269689D01*
X325665D02*
X326650D01*
X328864Y267720D02*
Y268705D01*
X329110Y269197*
X329356Y269443*
X329848Y269689*
X330341*
X330833Y269443*
X331079Y269197*
X331325Y268705*
Y267720*
X331079Y267228*
X330833Y266982*
X330341Y266736*
X329848*
X329356Y266982*
X329110Y267228*
X328864Y267720*
X336738D02*
Y268705D01*
X336984Y269197*
X337230Y269443*
X337722Y269689*
X338215*
X338707Y269443*
X338953Y269197*
X339199Y268705*
Y267720*
X338953Y267228*
X338707Y266982*
X338215Y266736*
X337722*
X337230Y266982*
X336984Y267228*
X336738Y267720*
X340675Y269689D02*
Y267474D01*
X340921Y266982*
X341413Y266736*
X342398*
X342890Y266982*
X343136Y267474*
Y269689*
X345843Y266736D02*
Y269689D01*
X344612D02*
X347073D01*
X310440Y173551D02*
Y176803D01*
X308280*
Y178964*
X310440*
Y182217*
X312601*
Y173551*
X310440*
X305673D02*
Y182217D01*
X307849*
Y173551*
X305673*
X319091D02*
Y174858D01*
X316469*
X315623Y173551*
X313047*
X318137Y181409*
X318276Y181602*
X318422Y181763*
X318583Y181902*
X318760Y182017*
X318945Y182101*
X319145Y182163*
X319352Y182201*
X319575Y182217*
X319744Y182209*
X319906Y182186*
X320060Y182148*
X320213Y182094*
X320359Y182017*
X320498Y181932*
X320637Y181832*
X320767Y181709*
X320883Y181586*
X320982Y181448*
X321067Y181309*
X321144Y181163*
X321198Y181009*
X321236Y180856*
X321259Y180694*
X321267Y180525*
Y177449*
X319091*
Y178895*
X317853Y177019*
X321267*
Y173551*
X319091*
X328672D02*
X328449Y173566D01*
X328241Y173604*
X328041Y173666*
X327857Y173750*
X327680Y173866*
X327519Y174004*
X327372Y174166*
X327234Y174358*
X324289Y178895*
Y173551*
X322128*
Y180525*
X322136Y180694*
X322159Y180863*
X322197Y181017*
X322251Y181171*
X322320Y181317*
X322405Y181456*
X322513Y181594*
X322628Y181717*
X322751Y181832*
X322889Y181940*
X323028Y182024*
X323174Y182094*
X323328Y182148*
X323481Y182186*
X323651Y182209*
X323820Y182217*
X324043Y182201*
X324250Y182163*
X324450Y182101*
X324635Y182017*
X324804Y181902*
X324966Y181763*
X325112Y181602*
X325243Y181409*
X328187Y176872*
Y182217*
X330364*
Y175242*
X330356Y175073*
X330333Y174904*
X330294Y174750*
X330241Y174596*
X330171Y174450*
X330087Y174304*
X329987Y174174*
X329864Y174050*
X329741Y173928*
X329602Y173828*
X329464Y173743*
X329318Y173674*
X329164Y173620*
X329010Y173581*
X328841Y173558*
X328672Y173551*
X331517Y180056D02*
Y181140D01*
X331525Y181248*
X331540Y181356*
X331563Y181456*
X331602Y181556*
X331640Y181648*
X331694Y181732*
X331763Y181817*
X331832Y181902*
X331917Y181978*
X332002Y182040*
X332094Y182094*
X332186Y182140*
X332286Y182170*
X332386Y182194*
X332494Y182209*
X332609Y182217*
X337000*
X338453Y180056*
X331517*
X337376Y173551D02*
X332540D01*
X331087Y175711*
X335546*
X331871Y179618*
X334839*
X337361Y177003*
X337492Y176849*
X337622Y176696*
X337730Y176557*
X337838Y176419*
X337938Y176288*
X338030Y176165*
X338107Y176050*
X338176Y175942*
X338245Y175834*
X338299Y175734*
X338345Y175642*
X338384Y175557*
X338415Y175481*
X338437Y175411*
X338445Y175342*
X338453Y175281*
Y174635*
X338445Y174527*
X338430Y174420*
X338407Y174320*
X338369Y174227*
X338322Y174127*
X338269Y174043*
X338207Y173950*
X338130Y173874*
X338045Y173797*
X337961Y173728*
X337876Y173674*
X337776Y173628*
X337684Y173597*
X337584Y173574*
X337484Y173558*
X337376Y173551*
X344266Y176949D02*
Y173551D01*
X342106*
Y176949*
X338691Y182217*
X341275*
X343182Y179272*
X345089Y182217*
X347665*
X344266Y176949*
X305673Y173608D02*
X307849D01*
X310440D02*
X312601D01*
X313084D02*
X315660D01*
X319091D02*
X321267D01*
X322128D02*
X324289D01*
X328229D02*
X329118D01*
X332501D02*
X337718D01*
X342106D02*
X344266D01*
X305673Y173702D02*
X307849D01*
X310440D02*
X312601D01*
X313145D02*
X315721D01*
X319091D02*
X321267D01*
X322128D02*
X324289D01*
X327963D02*
X329378D01*
X332438D02*
X337920D01*
X342106D02*
X344266D01*
X305673Y173796D02*
X307849D01*
X310440D02*
X312601D01*
X313206D02*
X315781D01*
X319091D02*
X321267D01*
X322128D02*
X324289D01*
X327787D02*
X329550D01*
X332375D02*
X338045D01*
X342106D02*
X344266D01*
X305673Y173889D02*
X307849D01*
X310440D02*
X312601D01*
X313266D02*
X315842D01*
X319091D02*
X321267D01*
X322128D02*
X324289D01*
X327652D02*
X329688D01*
X332312D02*
X338146D01*
X342106D02*
X344266D01*
X305673Y173983D02*
X307849D01*
X310440D02*
X312601D01*
X313327D02*
X315903D01*
X319091D02*
X321267D01*
X322128D02*
X324289D01*
X327543D02*
X329796D01*
X332249D02*
X338228D01*
X342106D02*
X344266D01*
X305673Y174077D02*
X307849D01*
X310440D02*
X312601D01*
X313387D02*
X315963D01*
X319091D02*
X321267D01*
X322128D02*
X324289D01*
X327453D02*
X329890D01*
X332186D02*
X338290D01*
X342106D02*
X344266D01*
X305673Y174170D02*
X307849D01*
X310440D02*
X312601D01*
X313448D02*
X316024D01*
X319091D02*
X321267D01*
X322128D02*
X324289D01*
X327369D02*
X329984D01*
X332123D02*
X338342D01*
X342106D02*
X344266D01*
X305673Y174264D02*
X307849D01*
X310440D02*
X312601D01*
X313509D02*
X316085D01*
X319091D02*
X321267D01*
X322128D02*
X324289D01*
X327302D02*
X330056D01*
X332060D02*
X338384D01*
X342106D02*
X344266D01*
X305673Y174358D02*
X307849D01*
X310440D02*
X312601D01*
X313570D02*
X316145D01*
X319091D02*
X321267D01*
X322128D02*
X324289D01*
X327234D02*
X330118D01*
X331997D02*
X338416D01*
X342106D02*
X344266D01*
X305673Y174452D02*
X307849D01*
X310440D02*
X312601D01*
X313630D02*
X316206D01*
X319091D02*
X321267D01*
X322128D02*
X324289D01*
X327173D02*
X330171D01*
X331934D02*
X338435D01*
X342106D02*
X344266D01*
X305673Y174545D02*
X307849D01*
X310440D02*
X312601D01*
X313691D02*
X316267D01*
X319091D02*
X321267D01*
X322128D02*
X324289D01*
X327112D02*
X330216D01*
X331871D02*
X338446D01*
X342106D02*
X344266D01*
X305673Y174639D02*
X307849D01*
X310440D02*
X312601D01*
X313752D02*
X316327D01*
X319091D02*
X321267D01*
X322128D02*
X324289D01*
X327052D02*
X330256D01*
X331808D02*
X338453D01*
X342106D02*
X344266D01*
X305673Y174733D02*
X307849D01*
X310440D02*
X312601D01*
X313813D02*
X316388D01*
X319091D02*
X321267D01*
X322128D02*
X324289D01*
X326991D02*
X330289D01*
X331745D02*
X338453D01*
X342106D02*
X344266D01*
X305673Y174826D02*
X307849D01*
X310440D02*
X312601D01*
X313873D02*
X316448D01*
X319091D02*
X321267D01*
X322128D02*
X324289D01*
X326930D02*
X330313D01*
X331682D02*
X338453D01*
X342106D02*
X344266D01*
X305673Y174920D02*
X307849D01*
X310440D02*
X312601D01*
X313934D02*
X321267D01*
X322128D02*
X324289D01*
X326869D02*
X330335D01*
X331619D02*
X338453D01*
X342106D02*
X344266D01*
X305673Y175014D02*
X307849D01*
X310440D02*
X312601D01*
X313994D02*
X321267D01*
X322128D02*
X324289D01*
X326808D02*
X330348D01*
X331556D02*
X338453D01*
X342106D02*
X344266D01*
X305673Y175107D02*
X307849D01*
X310440D02*
X312601D01*
X314055D02*
X321267D01*
X322128D02*
X324289D01*
X326747D02*
X330357D01*
X331493D02*
X338453D01*
X342106D02*
X344266D01*
X305673Y175201D02*
X307849D01*
X310440D02*
X312601D01*
X314116D02*
X321267D01*
X322128D02*
X324289D01*
X326687D02*
X330362D01*
X331430D02*
X338453D01*
X342106D02*
X344266D01*
X305673Y175295D02*
X307849D01*
X310440D02*
X312601D01*
X314177D02*
X321267D01*
X322128D02*
X324289D01*
X326626D02*
X330364D01*
X331367D02*
X338451D01*
X342106D02*
X344266D01*
X305673Y175389D02*
X307849D01*
X310440D02*
X312601D01*
X314237D02*
X321267D01*
X322128D02*
X324289D01*
X326565D02*
X330364D01*
X331304D02*
X338440D01*
X342106D02*
X344266D01*
X305673Y175482D02*
X307849D01*
X310440D02*
X312601D01*
X314298D02*
X321267D01*
X322128D02*
X324289D01*
X326504D02*
X330364D01*
X331241D02*
X338415D01*
X342106D02*
X344266D01*
X305673Y175576D02*
X307849D01*
X310440D02*
X312601D01*
X314359D02*
X321267D01*
X322128D02*
X324289D01*
X326443D02*
X330364D01*
X331178D02*
X338376D01*
X342106D02*
X344266D01*
X305673Y175670D02*
X307849D01*
X310440D02*
X312601D01*
X314419D02*
X321267D01*
X322128D02*
X324289D01*
X326382D02*
X330364D01*
X331115D02*
X338331D01*
X342106D02*
X344266D01*
X305673Y175763D02*
X307849D01*
X310440D02*
X312601D01*
X314480D02*
X321267D01*
X322128D02*
X324289D01*
X326322D02*
X330364D01*
X335498D02*
X338283D01*
X342106D02*
X344266D01*
X305673Y175857D02*
X307849D01*
X310440D02*
X312601D01*
X314541D02*
X321267D01*
X322128D02*
X324289D01*
X326261D02*
X330364D01*
X335409D02*
X338231D01*
X342106D02*
X344266D01*
X305673Y175951D02*
X307849D01*
X310440D02*
X312601D01*
X314602D02*
X321267D01*
X322128D02*
X324289D01*
X326200D02*
X330364D01*
X335321D02*
X338170D01*
X342106D02*
X344266D01*
X305673Y176044D02*
X307849D01*
X310440D02*
X312601D01*
X314662D02*
X321267D01*
X322128D02*
X324289D01*
X326139D02*
X330364D01*
X335233D02*
X338110D01*
X342106D02*
X344266D01*
X305673Y176138D02*
X307849D01*
X310440D02*
X312601D01*
X314723D02*
X321267D01*
X322128D02*
X324289D01*
X326078D02*
X330364D01*
X335145D02*
X338048D01*
X342106D02*
X344266D01*
X305673Y176232D02*
X307849D01*
X310440D02*
X312601D01*
X314783D02*
X321267D01*
X322128D02*
X324289D01*
X326017D02*
X330364D01*
X335057D02*
X337980D01*
X342106D02*
X344266D01*
X305673Y176326D02*
X307849D01*
X310440D02*
X312601D01*
X314844D02*
X321267D01*
X322128D02*
X324289D01*
X325957D02*
X330364D01*
X334969D02*
X337909D01*
X342106D02*
X344266D01*
X305673Y176419D02*
X307849D01*
X310440D02*
X312601D01*
X314905D02*
X321267D01*
X322128D02*
X324289D01*
X325896D02*
X330364D01*
X334880D02*
X337838D01*
X342106D02*
X344266D01*
X305673Y176513D02*
X307849D01*
X310440D02*
X312601D01*
X314966D02*
X321267D01*
X322128D02*
X324289D01*
X325835D02*
X330364D01*
X334792D02*
X337765D01*
X342106D02*
X344266D01*
X305673Y176607D02*
X307849D01*
X310440D02*
X312601D01*
X315026D02*
X321267D01*
X322128D02*
X324289D01*
X325774D02*
X330364D01*
X334704D02*
X337692D01*
X342106D02*
X344266D01*
X305673Y176700D02*
X307849D01*
X310440D02*
X312601D01*
X315087D02*
X321267D01*
X322128D02*
X324289D01*
X325713D02*
X330364D01*
X334616D02*
X337619D01*
X342106D02*
X344266D01*
X305673Y176794D02*
X307849D01*
X310440D02*
X312601D01*
X315148D02*
X321267D01*
X322128D02*
X324289D01*
X325652D02*
X330364D01*
X334528D02*
X337539D01*
X342106D02*
X344266D01*
X305673Y176888D02*
X307849D01*
X308280D02*
X312601D01*
X315208D02*
X321267D01*
X322128D02*
X324289D01*
X325592D02*
X328178D01*
X328187D02*
X330364D01*
X334439D02*
X337459D01*
X342106D02*
X344266D01*
X305673Y176981D02*
X307849D01*
X308280D02*
X312601D01*
X315269D02*
X321267D01*
X322128D02*
X324289D01*
X325531D02*
X328117D01*
X328187D02*
X330364D01*
X334352D02*
X337380D01*
X342085D02*
X344287D01*
X305673Y177075D02*
X307849D01*
X308280D02*
X312601D01*
X315330D02*
X317890D01*
X322128D02*
X324289D01*
X325470D02*
X328056D01*
X328187D02*
X330364D01*
X334263D02*
X337291D01*
X342024D02*
X344347D01*
X305673Y177169D02*
X307849D01*
X308280D02*
X312601D01*
X315391D02*
X317952D01*
X322128D02*
X324289D01*
X325409D02*
X327995D01*
X328187D02*
X330364D01*
X334175D02*
X337201D01*
X341963D02*
X344408D01*
X305673Y177263D02*
X307849D01*
X308280D02*
X312601D01*
X315451D02*
X318014D01*
X322128D02*
X324289D01*
X325348D02*
X327934D01*
X328187D02*
X330364D01*
X334087D02*
X337111D01*
X341902D02*
X344469D01*
X305673Y177356D02*
X307849D01*
X308280D02*
X312601D01*
X315512D02*
X318076D01*
X322128D02*
X324289D01*
X325288D02*
X327873D01*
X328187D02*
X330364D01*
X333999D02*
X337020D01*
X341842D02*
X344529D01*
X305673Y177450D02*
X307849D01*
X308280D02*
X312601D01*
X315572D02*
X318137D01*
X319091D02*
X321267D01*
X322128D02*
X324289D01*
X325227D02*
X327813D01*
X328187D02*
X330364D01*
X333911D02*
X336930D01*
X341781D02*
X344589D01*
X305673Y177544D02*
X307849D01*
X308280D02*
X312601D01*
X315633D02*
X318199D01*
X319091D02*
X321267D01*
X322128D02*
X324289D01*
X325166D02*
X327752D01*
X328187D02*
X330364D01*
X333822D02*
X336840D01*
X341720D02*
X344650D01*
X305673Y177637D02*
X307849D01*
X308280D02*
X312601D01*
X315694D02*
X318261D01*
X319091D02*
X321267D01*
X322128D02*
X324289D01*
X325105D02*
X327691D01*
X328187D02*
X330364D01*
X333734D02*
X336749D01*
X341659D02*
X344710D01*
X305673Y177731D02*
X307849D01*
X308280D02*
X312601D01*
X315755D02*
X318323D01*
X319091D02*
X321267D01*
X322128D02*
X324289D01*
X325044D02*
X327630D01*
X328187D02*
X330364D01*
X333646D02*
X336659D01*
X341599D02*
X344770D01*
X305673Y177825D02*
X307849D01*
X308280D02*
X312601D01*
X315815D02*
X318385D01*
X319091D02*
X321267D01*
X322128D02*
X324289D01*
X324983D02*
X327569D01*
X328187D02*
X330364D01*
X333558D02*
X336569D01*
X341538D02*
X344831D01*
X305673Y177919D02*
X307849D01*
X308280D02*
X312601D01*
X315876D02*
X318446D01*
X319091D02*
X321267D01*
X322128D02*
X324289D01*
X324923D02*
X327508D01*
X328187D02*
X330364D01*
X333470D02*
X336478D01*
X341477D02*
X344892D01*
X305673Y178012D02*
X307849D01*
X308280D02*
X312601D01*
X315937D02*
X318509D01*
X319091D02*
X321267D01*
X322128D02*
X324289D01*
X324862D02*
X327448D01*
X328187D02*
X330364D01*
X333381D02*
X336388D01*
X341417D02*
X344952D01*
X305673Y178106D02*
X307849D01*
X308280D02*
X312601D01*
X315998D02*
X318570D01*
X319091D02*
X321267D01*
X322128D02*
X324289D01*
X324801D02*
X327387D01*
X328187D02*
X330364D01*
X333293D02*
X336297D01*
X341356D02*
X345013D01*
X305673Y178200D02*
X307849D01*
X308280D02*
X312601D01*
X316058D02*
X318632D01*
X319091D02*
X321267D01*
X322128D02*
X324289D01*
X324740D02*
X327326D01*
X328187D02*
X330364D01*
X333205D02*
X336207D01*
X341295D02*
X345073D01*
X305673Y178293D02*
X307849D01*
X308280D02*
X312601D01*
X316119D02*
X318694D01*
X319091D02*
X321267D01*
X322128D02*
X324289D01*
X324680D02*
X327265D01*
X328187D02*
X330364D01*
X333117D02*
X336117D01*
X341234D02*
X345133D01*
X305673Y178387D02*
X307849D01*
X308280D02*
X312601D01*
X316180D02*
X318756D01*
X319091D02*
X321267D01*
X322128D02*
X324289D01*
X324619D02*
X327204D01*
X328187D02*
X330364D01*
X333029D02*
X336026D01*
X341174D02*
X345194D01*
X305673Y178481D02*
X307849D01*
X308280D02*
X312601D01*
X316240D02*
X318818D01*
X319091D02*
X321267D01*
X322128D02*
X324289D01*
X324558D02*
X327144D01*
X328187D02*
X330364D01*
X332941D02*
X335936D01*
X341113D02*
X345254D01*
X305673Y178574D02*
X307849D01*
X308280D02*
X312601D01*
X316301D02*
X318880D01*
X319091D02*
X321267D01*
X322128D02*
X324289D01*
X324497D02*
X327083D01*
X328187D02*
X330364D01*
X332852D02*
X335845D01*
X341052D02*
X345315D01*
X305673Y178668D02*
X307849D01*
X308280D02*
X312601D01*
X316362D02*
X318941D01*
X319091D02*
X321267D01*
X322128D02*
X324289D01*
X324436D02*
X327022D01*
X328187D02*
X330364D01*
X332765D02*
X335755D01*
X340991D02*
X345375D01*
X305673Y178762D02*
X307849D01*
X308280D02*
X312601D01*
X316422D02*
X319003D01*
X319091D02*
X321267D01*
X322128D02*
X324289D01*
X324375D02*
X326961D01*
X328187D02*
X330364D01*
X332676D02*
X335665D01*
X340931D02*
X345436D01*
X305673Y178856D02*
X307849D01*
X308280D02*
X312601D01*
X316483D02*
X319065D01*
X319091D02*
X321267D01*
X322128D02*
X324289D01*
X324315D02*
X326900D01*
X328187D02*
X330364D01*
X332588D02*
X335574D01*
X340870D02*
X345496D01*
X305673Y178949D02*
X307849D01*
X308280D02*
X312601D01*
X316544D02*
X321267D01*
X322128D02*
X326839D01*
X328187D02*
X330364D01*
X332500D02*
X335484D01*
X340809D02*
X345557D01*
X305673Y179043D02*
X307849D01*
X310440D02*
X312601D01*
X316604D02*
X321267D01*
X322128D02*
X326779D01*
X328187D02*
X330364D01*
X332412D02*
X335393D01*
X340748D02*
X345617D01*
X305673Y179137D02*
X307849D01*
X310440D02*
X312601D01*
X316665D02*
X321267D01*
X322128D02*
X326718D01*
X328187D02*
X330364D01*
X332324D02*
X335303D01*
X340688D02*
X345678D01*
X305673Y179230D02*
X307849D01*
X310440D02*
X312601D01*
X316726D02*
X321267D01*
X322128D02*
X326657D01*
X328187D02*
X330364D01*
X332235D02*
X335213D01*
X340627D02*
X345738D01*
X305673Y179324D02*
X307849D01*
X310440D02*
X312601D01*
X316787D02*
X321267D01*
X322128D02*
X326596D01*
X328187D02*
X330364D01*
X332147D02*
X335122D01*
X340566D02*
X343148D01*
X343216D02*
X345798D01*
X305673Y179418D02*
X307849D01*
X310440D02*
X312601D01*
X316847D02*
X321267D01*
X322128D02*
X326535D01*
X328187D02*
X330364D01*
X332059D02*
X335032D01*
X340506D02*
X343087D01*
X343276D02*
X345859D01*
X305673Y179511D02*
X307849D01*
X310440D02*
X312601D01*
X316908D02*
X321267D01*
X322128D02*
X326474D01*
X328187D02*
X330364D01*
X331971D02*
X334941D01*
X340445D02*
X343027D01*
X343337D02*
X345919D01*
X305673Y179605D02*
X307849D01*
X310440D02*
X312601D01*
X316969D02*
X321267D01*
X322128D02*
X326414D01*
X328187D02*
X330364D01*
X331883D02*
X334851D01*
X340384D02*
X342966D01*
X343398D02*
X345980D01*
X305673Y179699D02*
X307849D01*
X310440D02*
X312601D01*
X317029D02*
X321267D01*
X322128D02*
X326353D01*
X328187D02*
X330364D01*
X340323D02*
X342905D01*
X343459D02*
X346041D01*
X305673Y179793D02*
X307849D01*
X310440D02*
X312601D01*
X317090D02*
X321267D01*
X322128D02*
X326292D01*
X328187D02*
X330364D01*
X340263D02*
X342844D01*
X343519D02*
X346101D01*
X305673Y179886D02*
X307849D01*
X310440D02*
X312601D01*
X317151D02*
X321267D01*
X322128D02*
X326231D01*
X328187D02*
X330364D01*
X340202D02*
X342784D01*
X343580D02*
X346161D01*
X305673Y179980D02*
X307849D01*
X310440D02*
X312601D01*
X317211D02*
X321267D01*
X322128D02*
X326170D01*
X328187D02*
X330364D01*
X340141D02*
X342723D01*
X343641D02*
X346222D01*
X305673Y180074D02*
X307849D01*
X310440D02*
X312601D01*
X317272D02*
X321267D01*
X322128D02*
X326109D01*
X328187D02*
X330364D01*
X331517D02*
X338441D01*
X340080D02*
X342663D01*
X343701D02*
X346282D01*
X305673Y180167D02*
X307849D01*
X310440D02*
X312601D01*
X317333D02*
X321267D01*
X322128D02*
X326049D01*
X328187D02*
X330364D01*
X331517D02*
X338378D01*
X340020D02*
X342602D01*
X343762D02*
X346343D01*
X305673Y180261D02*
X307849D01*
X310440D02*
X312601D01*
X317393D02*
X321267D01*
X322128D02*
X325988D01*
X328187D02*
X330364D01*
X331517D02*
X338315D01*
X339959D02*
X342541D01*
X343822D02*
X346403D01*
X305673Y180355D02*
X307849D01*
X310440D02*
X312601D01*
X317454D02*
X321267D01*
X322128D02*
X325927D01*
X328187D02*
X330364D01*
X331517D02*
X338252D01*
X339898D02*
X342480D01*
X343883D02*
X346464D01*
X305673Y180448D02*
X307849D01*
X310440D02*
X312601D01*
X317515D02*
X321267D01*
X322128D02*
X325866D01*
X328187D02*
X330364D01*
X331517D02*
X338189D01*
X339837D02*
X342420D01*
X343944D02*
X346524D01*
X305673Y180542D02*
X307849D01*
X310440D02*
X312601D01*
X317576D02*
X321266D01*
X322129D02*
X325806D01*
X328187D02*
X330364D01*
X331517D02*
X338126D01*
X339777D02*
X342359D01*
X344005D02*
X346585D01*
X305673Y180636D02*
X307849D01*
X310440D02*
X312601D01*
X317636D02*
X321262D01*
X322133D02*
X325744D01*
X328187D02*
X330364D01*
X331517D02*
X338063D01*
X339716D02*
X342298D01*
X344065D02*
X346645D01*
X305673Y180730D02*
X307849D01*
X310440D02*
X312601D01*
X317697D02*
X321254D01*
X322141D02*
X325684D01*
X328187D02*
X330364D01*
X331517D02*
X338000D01*
X339655D02*
X342238D01*
X344126D02*
X346706D01*
X305673Y180823D02*
X307849D01*
X310440D02*
X312601D01*
X317757D02*
X321241D01*
X322154D02*
X325623D01*
X328187D02*
X330364D01*
X331517D02*
X337937D01*
X339594D02*
X342177D01*
X344187D02*
X346766D01*
X305673Y180917D02*
X307849D01*
X310440D02*
X312601D01*
X317819D02*
X321221D01*
X322172D02*
X325562D01*
X328187D02*
X330364D01*
X331517D02*
X337874D01*
X339534D02*
X342117D01*
X344247D02*
X346826D01*
X305673Y181011D02*
X307849D01*
X310440D02*
X312601D01*
X317879D02*
X321198D01*
X322196D02*
X325502D01*
X328187D02*
X330364D01*
X331517D02*
X337811D01*
X339473D02*
X342056D01*
X344308D02*
X346887D01*
X305673Y181104D02*
X307849D01*
X310440D02*
X312601D01*
X317940D02*
X321165D01*
X322228D02*
X325441D01*
X328187D02*
X330364D01*
X331517D02*
X337748D01*
X339412D02*
X341995D01*
X344369D02*
X346947D01*
X305673Y181198D02*
X307849D01*
X310440D02*
X312601D01*
X318000D02*
X321126D01*
X322264D02*
X325380D01*
X328187D02*
X330364D01*
X331521D02*
X337685D01*
X339352D02*
X341934D01*
X344430D02*
X347008D01*
X305673Y181292D02*
X307849D01*
X310440D02*
X312601D01*
X318061D02*
X321076D01*
X322309D02*
X325319D01*
X328187D02*
X330364D01*
X331531D02*
X337622D01*
X339291D02*
X341874D01*
X344490D02*
X347068D01*
X305673Y181385D02*
X307849D01*
X310440D02*
X312601D01*
X318122D02*
X321020D01*
X322362D02*
X325258D01*
X328187D02*
X330364D01*
X331547D02*
X337559D01*
X339230D02*
X341813D01*
X344551D02*
X347129D01*
X305673Y181479D02*
X307849D01*
X310440D02*
X312601D01*
X318187D02*
X320960D01*
X322424D02*
X325195D01*
X328187D02*
X330364D01*
X331572D02*
X337496D01*
X339169D02*
X341752D01*
X344611D02*
X347189D01*
X305673Y181573D02*
X307849D01*
X310440D02*
X312601D01*
X318255D02*
X320892D01*
X322496D02*
X325131D01*
X328187D02*
X330364D01*
X331609D02*
X337433D01*
X339109D02*
X341692D01*
X344672D02*
X347250D01*
X305673Y181667D02*
X307849D01*
X310440D02*
X312601D01*
X318335D02*
X320807D01*
X322581D02*
X325053D01*
X328187D02*
X330364D01*
X331652D02*
X337370D01*
X339048D02*
X341631D01*
X344733D02*
X347310D01*
X305673Y181760D02*
X307849D01*
X310440D02*
X312601D01*
X318420D02*
X320713D01*
X322674D02*
X324968D01*
X328187D02*
X330364D01*
X331717D02*
X337306D01*
X338987D02*
X341570D01*
X344793D02*
X347370D01*
X305673Y181854D02*
X307849D01*
X310440D02*
X312601D01*
X318528D02*
X320607D01*
X322779D02*
X324860D01*
X328187D02*
X330364D01*
X331793D02*
X337243D01*
X338926D02*
X341509D01*
X344854D02*
X347431D01*
X305673Y181948D02*
X307849D01*
X310440D02*
X312601D01*
X318654D02*
X320473D01*
X322902D02*
X324737D01*
X328187D02*
X330364D01*
X331883D02*
X337180D01*
X338866D02*
X341449D01*
X344915D02*
X347491D01*
X305673Y182041D02*
X307849D01*
X310440D02*
X312601D01*
X318814D02*
X320313D01*
X323064D02*
X324581D01*
X328187D02*
X330364D01*
X332004D02*
X337117D01*
X338805D02*
X341388D01*
X344976D02*
X347552D01*
X305673Y182135D02*
X307849D01*
X310440D02*
X312601D01*
X319054D02*
X320096D01*
X323292D02*
X324341D01*
X328187D02*
X330364D01*
X332177D02*
X337054D01*
X338744D02*
X341328D01*
X345036D02*
X347612D01*
X306201Y161158D02*
Y162243D01*
X306209Y162350*
X306224Y162458*
X306247Y162558*
X306286Y162658*
X306324Y162750*
X306378Y162835*
X306447Y162919*
X306517Y163004*
X306601Y163081*
X306685Y163142*
X306778Y163196*
X306870Y163242*
X306970Y163273*
X307070Y163296*
X307178Y163311*
X307293Y163319*
X311684*
X313137Y161158*
X306201*
X312061Y154653D02*
X307224D01*
X305770Y156814*
X310230*
X306555Y160720*
X309523*
X312045Y158106*
X312176Y157952*
X312307Y157798*
X312414Y157659*
X312522Y157521*
X312622Y157391*
X312714Y157267*
X312791Y157152*
X312860Y157044*
X312930Y156937*
X312983Y156837*
X313030Y156744*
X313068Y156660*
X313098Y156583*
X313122Y156514*
X313130Y156444*
X313137Y156383*
Y155737*
X313130Y155630*
X313114Y155522*
X313091Y155422*
X313052Y155330*
X313006Y155230*
X312952Y155145*
X312891Y155053*
X312814Y154976*
X312730Y154899*
X312645Y154830*
X312560Y154776*
X312460Y154730*
X312368Y154699*
X312268Y154676*
X312168Y154661*
X312061Y154653*
X318950Y158052D02*
Y154653D01*
X316789*
Y158052*
X313376Y163319*
X315959*
X317866Y160374*
X319773Y163319*
X322349*
X318950Y158052*
X329331Y154653D02*
X329108Y154669D01*
X328900Y154707*
X328700Y154769*
X328516Y154853*
X328339Y154968*
X328178Y155107*
X328031Y155268*
X327893Y155460*
X324948Y159997*
Y154653*
X322787*
Y161627*
X322795Y161796*
X322818Y161966*
X322857Y162119*
X322910Y162273*
X322980Y162419*
X323064Y162558*
X323172Y162696*
X323287Y162819*
X323410Y162935*
X323548Y163042*
X323687Y163127*
X323833Y163196*
X323987Y163250*
X324141Y163288*
X324310Y163311*
X324479Y163319*
X324702Y163304*
X324909Y163265*
X325109Y163204*
X325294Y163119*
X325463Y163004*
X325625Y162865*
X325771Y162704*
X325902Y162512*
X328846Y157975*
Y163319*
X331023*
Y156344*
X331015Y156176*
X330992Y156006*
X330954Y155852*
X330900Y155699*
X330831Y155553*
X330746Y155407*
X330646Y155276*
X330523Y155153*
X330400Y155030*
X330261Y154930*
X330123Y154845*
X329977Y154776*
X329823Y154722*
X329669Y154684*
X329500Y154661*
X329331Y154653*
X338220Y161158D02*
X336636D01*
Y163319*
X339673*
X338220Y161158*
X334045Y154653D02*
Y161158D01*
X331884*
Y163319*
X336206*
Y154653*
X334045*
X344887D02*
Y157906D01*
X342726*
Y160067*
X344887*
Y163319*
X347048*
Y154653*
X344887*
X340119D02*
Y163319D01*
X342296*
Y154653*
X340119*
X307206Y154681D02*
X312289D01*
X316789D02*
X318950D01*
X322787D02*
X324948D01*
X329042D02*
X329646D01*
X334045D02*
X336206D01*
X340119D02*
X342296D01*
X344887D02*
X347048D01*
X307143Y154774D02*
X312560D01*
X316789D02*
X318950D01*
X322787D02*
X324948D01*
X328687D02*
X329977D01*
X334045D02*
X336206D01*
X340119D02*
X342296D01*
X344887D02*
X347048D01*
X307080Y154868D02*
X312691D01*
X316789D02*
X318950D01*
X322787D02*
X324948D01*
X328493D02*
X330161D01*
X334045D02*
X336206D01*
X340119D02*
X342296D01*
X344887D02*
X347048D01*
X307017Y154962D02*
X312798D01*
X316789D02*
X318950D01*
X322787D02*
X324948D01*
X328349D02*
X330306D01*
X334045D02*
X336206D01*
X340119D02*
X342296D01*
X344887D02*
X347048D01*
X306953Y155056D02*
X312893D01*
X316789D02*
X318950D01*
X322787D02*
X324948D01*
X328237D02*
X330426D01*
X334045D02*
X336206D01*
X340119D02*
X342296D01*
X344887D02*
X347048D01*
X306890Y155149D02*
X312955D01*
X316789D02*
X318950D01*
X322787D02*
X324948D01*
X328139D02*
X330519D01*
X334045D02*
X336206D01*
X340119D02*
X342296D01*
X344887D02*
X347048D01*
X306827Y155243D02*
X313013D01*
X316789D02*
X318950D01*
X322787D02*
X324948D01*
X328054D02*
X330613D01*
X334045D02*
X336206D01*
X340119D02*
X342296D01*
X344887D02*
X347048D01*
X306764Y155337D02*
X313056D01*
X316789D02*
X318950D01*
X322787D02*
X324948D01*
X327982D02*
X330693D01*
X334045D02*
X336206D01*
X340119D02*
X342296D01*
X344887D02*
X347048D01*
X306701Y155430D02*
X313093D01*
X316789D02*
X318950D01*
X322787D02*
X324948D01*
X327915D02*
X330760D01*
X334045D02*
X336206D01*
X340119D02*
X342296D01*
X344887D02*
X347048D01*
X306638Y155524D02*
X313115D01*
X316789D02*
X318950D01*
X322787D02*
X324948D01*
X327852D02*
X330814D01*
X334045D02*
X336206D01*
X340119D02*
X342296D01*
X344887D02*
X347048D01*
X306575Y155618D02*
X313128D01*
X316789D02*
X318950D01*
X322787D02*
X324948D01*
X327791D02*
X330861D01*
X334045D02*
X336206D01*
X340119D02*
X342296D01*
X344887D02*
X347048D01*
X306512Y155711D02*
X313135D01*
X316789D02*
X318950D01*
X322787D02*
X324948D01*
X327730D02*
X330904D01*
X334045D02*
X336206D01*
X340119D02*
X342296D01*
X344887D02*
X347048D01*
X306449Y155805D02*
X313137D01*
X316789D02*
X318950D01*
X322787D02*
X324948D01*
X327669D02*
X330937D01*
X334045D02*
X336206D01*
X340119D02*
X342296D01*
X344887D02*
X347048D01*
X306386Y155899D02*
X313137D01*
X316789D02*
X318950D01*
X322787D02*
X324948D01*
X327609D02*
X330965D01*
X334045D02*
X336206D01*
X340119D02*
X342296D01*
X344887D02*
X347048D01*
X306323Y155993D02*
X313137D01*
X316789D02*
X318950D01*
X322787D02*
X324948D01*
X327548D02*
X330989D01*
X334045D02*
X336206D01*
X340119D02*
X342296D01*
X344887D02*
X347048D01*
X306260Y156086D02*
X313137D01*
X316789D02*
X318950D01*
X322787D02*
X324948D01*
X327487D02*
X331003D01*
X334045D02*
X336206D01*
X340119D02*
X342296D01*
X344887D02*
X347048D01*
X306197Y156180D02*
X313137D01*
X316789D02*
X318950D01*
X322787D02*
X324948D01*
X327426D02*
X331015D01*
X334045D02*
X336206D01*
X340119D02*
X342296D01*
X344887D02*
X347048D01*
X306134Y156274D02*
X313137D01*
X316789D02*
X318950D01*
X322787D02*
X324948D01*
X327365D02*
X331020D01*
X334045D02*
X336206D01*
X340119D02*
X342296D01*
X344887D02*
X347048D01*
X306071Y156367D02*
X313137D01*
X316789D02*
X318950D01*
X322787D02*
X324948D01*
X327304D02*
X331023D01*
X334045D02*
X336206D01*
X340119D02*
X342296D01*
X344887D02*
X347048D01*
X306008Y156461D02*
X313128D01*
X316789D02*
X318950D01*
X322787D02*
X324948D01*
X327244D02*
X331023D01*
X334045D02*
X336206D01*
X340119D02*
X342296D01*
X344887D02*
X347048D01*
X305945Y156555D02*
X313108D01*
X316789D02*
X318950D01*
X322787D02*
X324948D01*
X327183D02*
X331023D01*
X334045D02*
X336206D01*
X340119D02*
X342296D01*
X344887D02*
X347048D01*
X305882Y156648D02*
X313072D01*
X316789D02*
X318950D01*
X322787D02*
X324948D01*
X327122D02*
X331023D01*
X334045D02*
X336206D01*
X340119D02*
X342296D01*
X344887D02*
X347048D01*
X305819Y156742D02*
X313031D01*
X316789D02*
X318950D01*
X322787D02*
X324948D01*
X327061D02*
X331023D01*
X334045D02*
X336206D01*
X340119D02*
X342296D01*
X344887D02*
X347048D01*
X310209Y156836D02*
X312983D01*
X316789D02*
X318950D01*
X322787D02*
X324948D01*
X327000D02*
X331023D01*
X334045D02*
X336206D01*
X340119D02*
X342296D01*
X344887D02*
X347048D01*
X310121Y156930D02*
X312933D01*
X316789D02*
X318950D01*
X322787D02*
X324948D01*
X326939D02*
X331023D01*
X334045D02*
X336206D01*
X340119D02*
X342296D01*
X344887D02*
X347048D01*
X310033Y157023D02*
X312874D01*
X316789D02*
X318950D01*
X322787D02*
X324948D01*
X326879D02*
X331023D01*
X334045D02*
X336206D01*
X340119D02*
X342296D01*
X344887D02*
X347048D01*
X309945Y157117D02*
X312813D01*
X316789D02*
X318950D01*
X322787D02*
X324948D01*
X326818D02*
X331023D01*
X334045D02*
X336206D01*
X340119D02*
X342296D01*
X344887D02*
X347048D01*
X309857Y157211D02*
X312752D01*
X316789D02*
X318950D01*
X322787D02*
X324948D01*
X326757D02*
X331023D01*
X334045D02*
X336206D01*
X340119D02*
X342296D01*
X344887D02*
X347048D01*
X309769Y157304D02*
X312687D01*
X316789D02*
X318950D01*
X322787D02*
X324948D01*
X326696D02*
X331023D01*
X334045D02*
X336206D01*
X340119D02*
X342296D01*
X344887D02*
X347048D01*
X309681Y157398D02*
X312616D01*
X316789D02*
X318950D01*
X322787D02*
X324948D01*
X326635D02*
X331023D01*
X334045D02*
X336206D01*
X340119D02*
X342296D01*
X344887D02*
X347048D01*
X309593Y157492D02*
X312544D01*
X316789D02*
X318950D01*
X322787D02*
X324948D01*
X326574D02*
X331023D01*
X334045D02*
X336206D01*
X340119D02*
X342296D01*
X344887D02*
X347048D01*
X309504Y157585D02*
X312472D01*
X316789D02*
X318950D01*
X322787D02*
X324948D01*
X326514D02*
X331023D01*
X334045D02*
X336206D01*
X340119D02*
X342296D01*
X344887D02*
X347048D01*
X309416Y157679D02*
X312399D01*
X316789D02*
X318950D01*
X322787D02*
X324948D01*
X326453D02*
X331023D01*
X334045D02*
X336206D01*
X340119D02*
X342296D01*
X344887D02*
X347048D01*
X309328Y157773D02*
X312326D01*
X316789D02*
X318950D01*
X322787D02*
X324948D01*
X326392D02*
X331023D01*
X334045D02*
X336206D01*
X340119D02*
X342296D01*
X344887D02*
X347048D01*
X309240Y157867D02*
X312248D01*
X316789D02*
X318950D01*
X322787D02*
X324948D01*
X326331D02*
X331023D01*
X334045D02*
X336206D01*
X340119D02*
X342296D01*
X344887D02*
X347048D01*
X309152Y157960D02*
X312169D01*
X316789D02*
X318950D01*
X322787D02*
X324948D01*
X326270D02*
X331023D01*
X334045D02*
X336206D01*
X340119D02*
X342296D01*
X342726D02*
X347048D01*
X309063Y158054D02*
X312089D01*
X316788D02*
X318952D01*
X322787D02*
X324948D01*
X326209D02*
X328795D01*
X328846D02*
X331023D01*
X334045D02*
X336206D01*
X340119D02*
X342296D01*
X342726D02*
X347048D01*
X308975Y158148D02*
X312005D01*
X316727D02*
X319012D01*
X322787D02*
X324948D01*
X326149D02*
X328734D01*
X328846D02*
X331023D01*
X334045D02*
X336206D01*
X340119D02*
X342296D01*
X342726D02*
X347048D01*
X308887Y158241D02*
X311914D01*
X316667D02*
X319073D01*
X322787D02*
X324948D01*
X326088D02*
X328674D01*
X328846D02*
X331023D01*
X334045D02*
X336206D01*
X340119D02*
X342296D01*
X342726D02*
X347048D01*
X308799Y158335D02*
X311824D01*
X316606D02*
X319133D01*
X322787D02*
X324948D01*
X326027D02*
X328613D01*
X328846D02*
X331023D01*
X334045D02*
X336206D01*
X340119D02*
X342296D01*
X342726D02*
X347048D01*
X308711Y158429D02*
X311733D01*
X316545D02*
X319194D01*
X322787D02*
X324948D01*
X325966D02*
X328552D01*
X328846D02*
X331023D01*
X334045D02*
X336206D01*
X340119D02*
X342296D01*
X342726D02*
X347048D01*
X308622Y158522D02*
X311643D01*
X316484D02*
X319254D01*
X322787D02*
X324948D01*
X325906D02*
X328491D01*
X328846D02*
X331023D01*
X334045D02*
X336206D01*
X340119D02*
X342296D01*
X342726D02*
X347048D01*
X308534Y158616D02*
X311553D01*
X316424D02*
X319315D01*
X322787D02*
X324948D01*
X325844D02*
X328430D01*
X328846D02*
X331023D01*
X334045D02*
X336206D01*
X340119D02*
X342296D01*
X342726D02*
X347048D01*
X308446Y158710D02*
X311462D01*
X316363D02*
X319375D01*
X322787D02*
X324948D01*
X325784D02*
X328369D01*
X328846D02*
X331023D01*
X334045D02*
X336206D01*
X340119D02*
X342296D01*
X342726D02*
X347048D01*
X308358Y158804D02*
X311372D01*
X316302D02*
X319435D01*
X322787D02*
X324948D01*
X325723D02*
X328309D01*
X328846D02*
X331023D01*
X334045D02*
X336206D01*
X340119D02*
X342296D01*
X342726D02*
X347048D01*
X308270Y158897D02*
X311281D01*
X316241D02*
X319496D01*
X322787D02*
X324948D01*
X325662D02*
X328248D01*
X328846D02*
X331023D01*
X334045D02*
X336206D01*
X340119D02*
X342296D01*
X342726D02*
X347048D01*
X308182Y158991D02*
X311191D01*
X316181D02*
X319557D01*
X322787D02*
X324948D01*
X325601D02*
X328187D01*
X328846D02*
X331023D01*
X334045D02*
X336206D01*
X340119D02*
X342296D01*
X342726D02*
X347048D01*
X308094Y159085D02*
X311101D01*
X316120D02*
X319617D01*
X322787D02*
X324948D01*
X325541D02*
X328126D01*
X328846D02*
X331023D01*
X334045D02*
X336206D01*
X340119D02*
X342296D01*
X342726D02*
X347048D01*
X308006Y159178D02*
X311010D01*
X316059D02*
X319678D01*
X322787D02*
X324948D01*
X325480D02*
X328065D01*
X328846D02*
X331023D01*
X334045D02*
X336206D01*
X340119D02*
X342296D01*
X342726D02*
X347048D01*
X307917Y159272D02*
X310920D01*
X315998D02*
X319738D01*
X322787D02*
X324948D01*
X325419D02*
X328004D01*
X328846D02*
X331023D01*
X334045D02*
X336206D01*
X340119D02*
X342296D01*
X342726D02*
X347048D01*
X307829Y159366D02*
X310830D01*
X315938D02*
X319798D01*
X322787D02*
X324948D01*
X325358D02*
X327944D01*
X328846D02*
X331023D01*
X334045D02*
X336206D01*
X340119D02*
X342296D01*
X342726D02*
X347048D01*
X307741Y159459D02*
X310739D01*
X315877D02*
X319859D01*
X322787D02*
X324948D01*
X325297D02*
X327883D01*
X328846D02*
X331023D01*
X334045D02*
X336206D01*
X340119D02*
X342296D01*
X342726D02*
X347048D01*
X307653Y159553D02*
X310649D01*
X315816D02*
X319919D01*
X322787D02*
X324948D01*
X325236D02*
X327822D01*
X328846D02*
X331023D01*
X334045D02*
X336206D01*
X340119D02*
X342296D01*
X342726D02*
X347048D01*
X307565Y159647D02*
X310558D01*
X315756D02*
X319980D01*
X322787D02*
X324948D01*
X325176D02*
X327761D01*
X328846D02*
X331023D01*
X334045D02*
X336206D01*
X340119D02*
X342296D01*
X342726D02*
X347048D01*
X307476Y159741D02*
X310468D01*
X315695D02*
X320040D01*
X322787D02*
X324948D01*
X325115D02*
X327700D01*
X328846D02*
X331023D01*
X334045D02*
X336206D01*
X340119D02*
X342296D01*
X342726D02*
X347048D01*
X307388Y159834D02*
X310378D01*
X315634D02*
X320101D01*
X322787D02*
X324948D01*
X325054D02*
X327639D01*
X328846D02*
X331023D01*
X334045D02*
X336206D01*
X340119D02*
X342296D01*
X342726D02*
X347048D01*
X307300Y159928D02*
X310287D01*
X315573D02*
X320161D01*
X322787D02*
X324948D01*
X324993D02*
X327579D01*
X328846D02*
X331023D01*
X334045D02*
X336206D01*
X340119D02*
X342296D01*
X342726D02*
X347048D01*
X307212Y160022D02*
X310196D01*
X315513D02*
X320222D01*
X322787D02*
X327518D01*
X328846D02*
X331023D01*
X334045D02*
X336206D01*
X340119D02*
X342296D01*
X342726D02*
X347048D01*
X307124Y160115D02*
X310106D01*
X315452D02*
X320282D01*
X322787D02*
X327457D01*
X328846D02*
X331023D01*
X334045D02*
X336206D01*
X340119D02*
X342296D01*
X344887D02*
X347048D01*
X307035Y160209D02*
X310016D01*
X315391D02*
X320343D01*
X322787D02*
X327396D01*
X328846D02*
X331023D01*
X334045D02*
X336206D01*
X340119D02*
X342296D01*
X344887D02*
X347048D01*
X306947Y160303D02*
X309926D01*
X315330D02*
X320403D01*
X322787D02*
X327335D01*
X328846D02*
X331023D01*
X334045D02*
X336206D01*
X340119D02*
X342296D01*
X344887D02*
X347048D01*
X306859Y160396D02*
X309835D01*
X315270D02*
X317852D01*
X317881D02*
X320463D01*
X322787D02*
X327275D01*
X328846D02*
X331023D01*
X334045D02*
X336206D01*
X340119D02*
X342296D01*
X344887D02*
X347048D01*
X306771Y160490D02*
X309744D01*
X315209D02*
X317791D01*
X317941D02*
X320524D01*
X322787D02*
X327214D01*
X328846D02*
X331023D01*
X334045D02*
X336206D01*
X340119D02*
X342296D01*
X344887D02*
X347048D01*
X306683Y160584D02*
X309654D01*
X315148D02*
X317730D01*
X318002D02*
X320584D01*
X322787D02*
X327153D01*
X328846D02*
X331023D01*
X334045D02*
X336206D01*
X340119D02*
X342296D01*
X344887D02*
X347048D01*
X306595Y160678D02*
X309564D01*
X315087D02*
X317670D01*
X318063D02*
X320645D01*
X322787D02*
X327092D01*
X328846D02*
X331023D01*
X334045D02*
X336206D01*
X340119D02*
X342296D01*
X344887D02*
X347048D01*
X315027Y160771D02*
X317609D01*
X318123D02*
X320705D01*
X322787D02*
X327031D01*
X328846D02*
X331023D01*
X334045D02*
X336206D01*
X340119D02*
X342296D01*
X344887D02*
X347048D01*
X314966Y160865D02*
X317548D01*
X318184D02*
X320766D01*
X322787D02*
X326970D01*
X328846D02*
X331023D01*
X334045D02*
X336206D01*
X340119D02*
X342296D01*
X344887D02*
X347048D01*
X314905Y160959D02*
X317487D01*
X318245D02*
X320826D01*
X322787D02*
X326910D01*
X328846D02*
X331023D01*
X334045D02*
X336206D01*
X340119D02*
X342296D01*
X344887D02*
X347048D01*
X314844Y161052D02*
X317427D01*
X318306D02*
X320887D01*
X322787D02*
X326849D01*
X328846D02*
X331023D01*
X334045D02*
X336206D01*
X340119D02*
X342296D01*
X344887D02*
X347048D01*
X314784Y161146D02*
X317366D01*
X318366D02*
X320947D01*
X322787D02*
X326788D01*
X328846D02*
X331023D01*
X334045D02*
X336206D01*
X340119D02*
X342296D01*
X344887D02*
X347048D01*
X306201Y161240D02*
X313082D01*
X314723D02*
X317306D01*
X318427D02*
X321007D01*
X322787D02*
X326727D01*
X328846D02*
X331023D01*
X331884D02*
X336206D01*
X336636D02*
X338275D01*
X340119D02*
X342296D01*
X344887D02*
X347048D01*
X306201Y161333D02*
X313019D01*
X314662D02*
X317245D01*
X318487D02*
X321068D01*
X322787D02*
X326667D01*
X328846D02*
X331023D01*
X331884D02*
X336206D01*
X336636D02*
X338338D01*
X340119D02*
X342296D01*
X344887D02*
X347048D01*
X306201Y161427D02*
X312956D01*
X314602D02*
X317184D01*
X318548D02*
X321129D01*
X322787D02*
X326606D01*
X328846D02*
X331023D01*
X331884D02*
X336206D01*
X336636D02*
X338401D01*
X340119D02*
X342296D01*
X344887D02*
X347048D01*
X306201Y161521D02*
X312893D01*
X314541D02*
X317124D01*
X318609D02*
X321189D01*
X322787D02*
X326545D01*
X328846D02*
X331023D01*
X331884D02*
X336206D01*
X336636D02*
X338464D01*
X340119D02*
X342296D01*
X344887D02*
X347048D01*
X306201Y161615D02*
X312830D01*
X314480D02*
X317063D01*
X318670D02*
X321250D01*
X322787D02*
X326484D01*
X328846D02*
X331023D01*
X331884D02*
X336206D01*
X336636D02*
X338527D01*
X340119D02*
X342296D01*
X344887D02*
X347048D01*
X306201Y161708D02*
X312767D01*
X314419D02*
X317002D01*
X318730D02*
X321310D01*
X322791D02*
X326423D01*
X328846D02*
X331023D01*
X331884D02*
X336206D01*
X336636D02*
X338590D01*
X340119D02*
X342296D01*
X344887D02*
X347048D01*
X306201Y161802D02*
X312704D01*
X314359D02*
X316941D01*
X318791D02*
X321370D01*
X322796D02*
X326362D01*
X328846D02*
X331023D01*
X331884D02*
X336206D01*
X336636D02*
X338653D01*
X340119D02*
X342296D01*
X344887D02*
X347048D01*
X306201Y161896D02*
X312641D01*
X314298D02*
X316881D01*
X318852D02*
X321431D01*
X322809D02*
X326302D01*
X328846D02*
X331023D01*
X331884D02*
X336206D01*
X336636D02*
X338716D01*
X340119D02*
X342296D01*
X344887D02*
X347048D01*
X306201Y161989D02*
X312578D01*
X314237D02*
X316820D01*
X318912D02*
X321491D01*
X322824D02*
X326241D01*
X328846D02*
X331023D01*
X331884D02*
X336206D01*
X336636D02*
X338779D01*
X340119D02*
X342296D01*
X344887D02*
X347048D01*
X306201Y162083D02*
X312515D01*
X314176D02*
X316759D01*
X318973D02*
X321552D01*
X322848D02*
X326180D01*
X328846D02*
X331023D01*
X331884D02*
X336206D01*
X336636D02*
X338842D01*
X340119D02*
X342296D01*
X344887D02*
X347048D01*
X306201Y162177D02*
X312452D01*
X314116D02*
X316699D01*
X319033D02*
X321612D01*
X322877D02*
X326119D01*
X328846D02*
X331023D01*
X331884D02*
X336206D01*
X336636D02*
X338905D01*
X340119D02*
X342296D01*
X344887D02*
X347048D01*
X306203Y162270D02*
X312389D01*
X314055D02*
X316638D01*
X319094D02*
X321673D01*
X322909D02*
X326058D01*
X328846D02*
X331023D01*
X331884D02*
X336206D01*
X336636D02*
X338968D01*
X340119D02*
X342296D01*
X344887D02*
X347048D01*
X306211Y162364D02*
X312326D01*
X313994D02*
X316577D01*
X319155D02*
X321733D01*
X322954D02*
X325997D01*
X328846D02*
X331023D01*
X331884D02*
X336206D01*
X336636D02*
X339031D01*
X340119D02*
X342296D01*
X344887D02*
X347048D01*
X306224Y162458D02*
X312263D01*
X313933D02*
X316517D01*
X319216D02*
X321794D01*
X323003D02*
X325937D01*
X328846D02*
X331023D01*
X331884D02*
X336206D01*
X336636D02*
X339094D01*
X340119D02*
X342296D01*
X344887D02*
X347048D01*
X306246Y162552D02*
X312200D01*
X313873D02*
X316456D01*
X319276D02*
X321854D01*
X323060D02*
X325874D01*
X328846D02*
X331023D01*
X331884D02*
X336206D01*
X336636D02*
X339157D01*
X340119D02*
X342296D01*
X344887D02*
X347048D01*
X306281Y162645D02*
X312137D01*
X313812D02*
X316395D01*
X319337D02*
X321915D01*
X323132D02*
X325811D01*
X328846D02*
X331023D01*
X331884D02*
X336206D01*
X336636D02*
X339220D01*
X340119D02*
X342296D01*
X344887D02*
X347048D01*
X306319Y162739D02*
X312074D01*
X313752D02*
X316335D01*
X319398D02*
X321975D01*
X323212D02*
X325739D01*
X328846D02*
X331023D01*
X331884D02*
X336206D01*
X336636D02*
X339283D01*
X340119D02*
X342296D01*
X344887D02*
X347048D01*
X306377Y162833D02*
X312011D01*
X313691D02*
X316274D01*
X319458D02*
X322035D01*
X323301D02*
X325654D01*
X328846D02*
X331023D01*
X331884D02*
X336206D01*
X336636D02*
X339346D01*
X340119D02*
X342296D01*
X344887D02*
X347048D01*
X306453Y162926D02*
X311948D01*
X313630D02*
X316213D01*
X319519D02*
X322096D01*
X323402D02*
X325554D01*
X328846D02*
X331023D01*
X331884D02*
X336206D01*
X336636D02*
X339409D01*
X340119D02*
X342296D01*
X344887D02*
X347048D01*
X306534Y163020D02*
X311885D01*
X313569D02*
X316153D01*
X319580D02*
X322156D01*
X323520D02*
X325440D01*
X328846D02*
X331023D01*
X331884D02*
X336206D01*
X336636D02*
X339472D01*
X340119D02*
X342296D01*
X344887D02*
X347048D01*
X306646Y163114D02*
X311822D01*
X313509D02*
X316092D01*
X319641D02*
X322217D01*
X323666D02*
X325302D01*
X328846D02*
X331023D01*
X331884D02*
X336206D01*
X336636D02*
X339535D01*
X340119D02*
X342296D01*
X344887D02*
X347048D01*
X306801Y163207D02*
X311759D01*
X313448D02*
X316031D01*
X319701D02*
X322277D01*
X323866D02*
X325097D01*
X328846D02*
X331023D01*
X331884D02*
X336206D01*
X336636D02*
X339598D01*
X340119D02*
X342296D01*
X344887D02*
X347048D01*
X307106Y163301D02*
X311696D01*
X313387D02*
X315970D01*
X319762D02*
X322338D01*
X324235D02*
X324715D01*
X328846D02*
X331023D01*
X331884D02*
X336206D01*
X336636D02*
X339661D01*
X340119D02*
X342296D01*
X344887D02*
X347048D01*
D02*
D75*
X36393Y105880D02*
Y104006D01*
Y125959D02*
Y124084D01*
Y253518D02*
Y251643D01*
Y273203D02*
Y271328D01*
X36463Y94699D02*
X46463D01*
X36463Y114699D02*
X46463D01*
X36463Y114778D02*
X46463D01*
X36463Y134778D02*
X46463D01*
X36463Y242337D02*
X46463D01*
X36463Y262022D02*
X46463D01*
X36463Y262337D02*
X46463D01*
X36463Y282022D02*
X46463D01*
X47015Y105880D02*
Y104006D01*
Y125959D02*
Y124084D01*
Y253518D02*
Y251643D01*
Y273203D02*
Y271328D01*
D02*
D100*
X108458Y302101D02*
X108539Y302131D01*
X108627Y302147*
X108715Y302130*
X108796Y302101*
X108864Y302050*
X108917Y301981*
X108951Y301898*
X108963Y301811*
X108955Y301741*
X108933Y301674*
X108901Y301619*
X108860Y301572*
X108815Y301539*
X108768Y301509*
X108712Y301484*
X108657Y301459*
X108597Y301476*
X108538Y301493*
X108478Y301520*
X108422Y301553*
X108370Y301601*
X108330Y301661*
X108302Y301734*
X108293Y301811*
X108304Y301898*
X108338Y301981*
X108390Y302050*
X108458Y302101*
X109472Y286007D02*
X109320Y285896D01*
X109232Y285689*
X109149Y285292*
X109128Y284920*
X109137Y284399*
X109182Y283864*
X109265Y283344*
X109381Y282844*
X109492Y282489*
X109661Y282127*
X109791Y281942*
X109966Y281855*
X109984Y281856D02*
X110137Y281967D01*
X110224Y282174*
X110308Y282570*
X110329Y282942*
X110320Y283467*
X110275Y283999*
X110189Y284508*
X110076Y285019*
X109973Y285401*
X109796Y285737*
X109654Y285880*
X109491Y286007*
X118202Y281391D02*
X117463Y281526D01*
X116776Y281776*
X116205Y282207*
X115763Y282789*
X115477Y283478*
X115378Y284214*
X115477Y284952*
X115763Y285639*
X116204Y286211*
X116776Y286652*
X117463Y286939*
X118202Y287037*
X118940Y286939*
X119627Y286652*
X120198Y286211*
X120640Y285639*
X120927Y284952*
X121026Y284214*
X120927Y283478*
X120640Y282789*
X120198Y282207*
X119627Y281776*
X118940Y281526*
X118202Y281391*
Y288276D02*
X117140Y288081D01*
X116152Y287721*
X115329Y287099*
X114693Y286263*
X114280Y285271*
X114138Y284213*
X114280Y283153*
X114693Y282164*
X115329Y281341*
X116152Y280705*
X117141Y280292*
X118202Y280150*
X119259Y280292*
X120251Y280705*
X121088Y281341*
X121710Y282164*
X122070Y283152*
X122266Y284213*
X122340Y284618*
X122478Y284994*
X122715Y285307*
X123033Y285550*
X123411Y285707*
X123814Y285762*
X124217Y285707*
X124595Y285550*
X124913Y285307*
X125150Y284994*
X125288Y284618*
X125362Y284213*
X125558Y283152*
X125918Y282164*
X126539Y281341*
X127376Y280705*
X128368Y280292*
X129426Y280149*
X130487Y280292*
X131476Y280705*
X132299Y281341*
X132934Y282164*
X133348Y283153*
X133490Y284213*
X133348Y285271*
X132934Y286263*
X132298Y287099*
X131476Y287721*
X130487Y288081*
X129426Y288276*
X118202*
X120637Y280044D02*
X119457Y279617D01*
X118202Y279384*
X116940Y279617*
X115765Y280044*
X114787Y280783*
X114032Y281778*
X113541Y282958*
X113372Y284214*
X113541Y285470*
X114032Y286650*
X114787Y287644*
X115765Y288383*
X116940Y288811*
X118202Y289043*
X123431*
Y291724*
X123062Y291869*
X122723Y292061*
X122445Y292330*
X122235Y292661*
X122099Y293041*
X122053Y293441*
X122114Y293900*
X122293Y294330*
X122568Y294686*
X122925Y294961*
X123353Y295140*
X123814Y295202*
X124274Y295140*
X124703Y294961*
X125059Y294686*
X125335Y294330*
X125513Y293900*
X125575Y293441*
X125528Y293041*
X125393Y292661*
X125183Y292329*
X124904Y292060*
X124566Y291869*
X124197Y291724*
Y289043*
X129426*
X130687Y288811*
X131862Y288383*
X132840Y287644*
X133595Y286650*
X134087Y285471*
X134256Y284214*
X134087Y282954*
X133595Y281778*
X132840Y280800*
X131862Y280044*
X130686Y279553*
X129426Y279384*
X128169Y279553*
X126990Y280044*
X125995Y280800*
X125256Y281778*
X124828Y282952*
X124596Y284214*
X124558Y284418*
X124489Y284609*
X124369Y284767*
X124208Y284889*
X124017Y284969*
X123814Y284996*
X123610Y284969*
X123419Y284889*
X123258Y284767*
X123138Y284609*
X123069Y284418*
X123031Y284214*
X122799Y282956*
X122371Y281778*
X121632Y280784*
X120637Y280044*
X122665Y291190D02*
Y289809D01*
X118202*
X116740Y289539*
X115380Y289044*
X114246Y288187*
X113371Y287035*
X112802Y285670*
X112606Y284213*
X112802Y282753*
X113370Y281391*
X114246Y280257*
X115379Y279382*
X116741Y278813*
X118202Y278617*
X119659Y278813*
X121025Y279382*
X122180Y280258*
X123042Y281391*
X123548Y282751*
X123830Y284213*
X124100Y282752*
X124596Y281391*
X125452Y280258*
X126604Y279382*
X127970Y278813*
X129426Y278617*
X130887Y278813*
X132249Y279382*
X133382Y280257*
X134257Y281391*
X134826Y282753*
X135022Y284213*
X134827Y285670*
X134257Y287035*
X133382Y288187*
X132249Y289044*
X130888Y289539*
X129426Y289809*
X124963*
Y291190*
X125346Y291447*
X125692Y291744*
X125968Y292105*
X126170Y292517*
X126298Y292972*
X126342Y293441*
X126253Y294100*
X125996Y294715*
X125601Y295227*
X125089Y295622*
X124474Y295879*
X123815Y295968*
X123154Y295879*
X122540Y295622*
X122028Y295227*
X121633Y294715*
X121376Y294100*
X121287Y293441*
X121330Y292972*
X121459Y292517*
X121660Y292105*
X121936Y291744*
X122282Y291447*
X122665Y291190*
X125317Y302903D02*
X124565Y303048D01*
X123814Y303122*
X123061Y303048*
X122310Y302903*
X121710Y302683*
X121206Y302326*
X120926Y301944*
X120704Y301509*
X119499Y301180*
X118321Y300774*
X117270Y300270*
X116292Y299638*
X115426Y298918*
X114606Y298141*
X114477Y298231*
X114343Y298311*
X114197Y298376*
X114045Y298422*
X113884Y298450*
X113720Y298460*
X113350Y298411*
X113004Y298267*
X112717Y298046*
X112496Y297759*
X112352Y297414*
X112303Y297044*
X112324Y296800*
X112388Y296563*
X112487Y296346*
X112622Y296153*
X112789Y295990*
X112975Y295844*
X112499Y294862*
X112065Y293863*
X111695Y292785*
X111407Y291682*
X111179Y290511*
X110990Y289333*
X110820Y289290*
X110651Y289241*
X110488Y289185*
X110329Y289120*
X110176Y289049*
X110025Y288973*
X109557Y294894*
X109089Y300815*
X109263Y300925*
X109422Y301054*
X109550Y301213*
X109645Y301396*
X109707Y301600*
X109727Y301812*
X109689Y302100*
X109577Y302368*
X109405Y302591*
X109182Y302763*
X108914Y302875*
X108626Y302913*
X108338Y302875*
X108069Y302763*
X107846Y302591*
X107674Y302368*
X107563Y302100*
X107524Y301812*
X107551Y301573*
X107629Y301344*
X107750Y301144*
X107912Y300978*
X108109Y300854*
X108325Y300757*
X108811Y294606*
X109298Y288454*
X108764Y287793*
X108316Y287085*
X108004Y286235*
X107852Y285331*
X107828Y284340*
X107943Y283359*
X108270Y282184*
X108813Y281090*
X109485Y280232*
X110333Y279554*
X111291Y279138*
X112320Y278989*
X112443Y278991*
X112565Y278998*
X112690Y279008*
X112814Y279021*
X112941Y279039*
X113067Y279061*
X113109Y279070*
X113151Y279080*
X113193Y279090*
X113234Y279102*
X113275Y279113*
X113317Y279124*
X114479Y276663*
X115869Y274344*
X117492Y272483*
X119474Y270991*
X121572Y270069*
X123812Y269726*
X126053Y270069*
X128150Y270991*
X130132Y272483*
X131755Y274344*
X133145Y276663*
X134306Y279124*
X134348Y279112*
X134431Y279090*
X134473Y279080*
X134515Y279070*
X134557Y279061*
X134683Y279039*
X134810Y279022*
X134934Y279008*
X135059Y278998*
X135181Y278992*
X135304Y278990*
X136332Y279138*
X137290Y279555*
X138138Y280233*
X138809Y281090*
X139351Y282185*
X139680Y283360*
X139804Y284690*
X139659Y286031*
X139274Y287189*
X138610Y288166*
X137696Y288832*
X136632Y289334*
X136444Y290515*
X136215Y291689*
X135926Y292794*
X135554Y293874*
X135119Y294875*
X134641Y295859*
X134820Y296006*
X134981Y296168*
X135111Y296359*
X135205Y296573*
X135265Y296806*
X135286Y297046*
X135236Y297415*
X135093Y297760*
X134872Y298047*
X134585Y298268*
X134239Y298412*
X133870Y298461*
X133710Y298452*
X133553Y298424*
X133404Y298381*
X133262Y298320*
X133131Y298243*
X133004Y298158*
X132185Y298932*
X131320Y299648*
X130344Y300277*
X129296Y300778*
X128122Y301181*
X126922Y301509*
X126699Y301944*
X126420Y302326*
X125916Y302683*
X125317Y302903*
X127056Y264390D02*
X125435Y261583D01*
X123814Y258776*
X122193Y261583*
X120572Y264390*
X127056*
X129426Y281391D02*
X128688Y281526D01*
X128000Y281776*
X127429Y282207*
X126988Y282789*
X126701Y283478*
X126602Y284214*
X126701Y284952*
X126987Y285639*
X127429Y286211*
X128000Y286652*
X128687Y286939*
X129426Y287037*
X130164Y286938*
X130850Y286652*
X131422Y286211*
X131864Y285639*
X132151Y284952*
X132250Y284214*
X132151Y283478*
X131864Y282789*
X131422Y282207*
X130850Y281776*
X130164Y281526*
X129426Y281391*
X130336Y268268D02*
X129178Y268444D01*
X127994Y268622*
Y267206*
X127708Y267148*
X127422Y267094*
X126674Y266976*
X125921Y266888*
X124869Y266806*
X123814Y266777*
X122759Y266806*
X121706Y266888*
X120953Y266976*
X120204Y267094*
X119918Y267148*
X119632Y267206*
Y268622*
X118448Y268445*
X117290Y268268*
X116513Y268117*
X115731Y267783*
X115363Y267507*
X115164Y267206*
X115513Y266740*
X116345Y266388*
X118014Y265963*
X119448Y265807*
X121562Y265657*
X123814Y265586*
X126065Y265657*
X128178Y265807*
X129612Y265963*
X131281Y266388*
X132113Y266740*
X132462Y267206*
X132263Y267507*
X131895Y267783*
X131113Y268117*
X130336Y268268*
X133589Y279384D02*
X132445Y276956D01*
X131063Y274678*
X129535Y272964*
X127676Y271596*
X125805Y270791*
X123813Y270492*
X121821Y270791*
X119950Y271597*
X118091Y272964*
X116563Y274678*
X115181Y276956*
X114037Y279384*
X113918Y279711*
X113798Y280039*
X113124Y279863*
X113088Y279853*
X113051Y279843*
X133589Y279385D02*
X133708Y279713D01*
X133828Y280040*
X134165Y279952*
X134503Y279865*
X134539Y279855*
X134576Y279845*
X134597Y279840*
X134619Y279833*
X134640Y279827*
X134661Y279821*
X134683Y279817*
X134706Y279811*
X134806Y279792*
X134906Y279779*
X135006Y279769*
X135107Y279761*
X135207Y279756*
X135307Y279755*
X136146Y279880*
X136926Y280228*
X137633Y280806*
X138189Y281533*
X138649Y282484*
X138930Y283501*
X139044Y284667*
X138925Y285844*
X138609Y286817*
X138057Y287637*
X137322Y288176*
X136467Y288586*
X135941Y288704*
X135874Y289239*
X135689Y290396*
X135463Y291547*
X135185Y292603*
X134828Y293633*
X134421Y294567*
X133974Y295485*
X133628Y296109*
X134224Y296499*
X134309Y296568*
X134385Y296645*
X134444Y296733*
X134487Y296832*
X134513Y296936*
X134522Y297044*
X134499Y297213*
X134433Y297372*
X134332Y297503*
X134200Y297605*
X134042Y297670*
X133872Y297693*
X133790Y297687*
X133709Y297671*
X133641Y297648*
X133576Y297618*
X133526Y297587*
X133477Y297553*
X133198Y297336*
X132918Y297119*
X132680Y297380*
X132441Y297640*
X131657Y298376*
X130829Y299056*
X129915Y299636*
X128935Y300098*
X127864Y300461*
X126770Y300758*
X126508Y300811*
X126245Y300864*
X126205Y301130*
X126165Y301394*
X126008Y301619*
X125830Y301818*
X125450Y302054*
X125009Y302194*
X124411Y302298*
X123814Y302356*
X123217Y302298*
X122618Y302194*
X122178Y302054*
X121798Y301818*
X121619Y301619*
X121461Y301395*
X121421Y301130*
X121381Y300865*
X121119Y300812*
X120856Y300759*
X119759Y300461*
X118686Y300096*
X117703Y299632*
X116787Y299049*
X115956Y298365*
X115171Y297625*
X114928Y297358*
X114685Y297092*
X114404Y297319*
X114124Y297545*
X114074Y297581*
X114022Y297614*
X113956Y297646*
X113887Y297671*
X113804Y297689*
X113720Y297694*
X113550Y297672*
X113392Y297606*
X113260Y297504*
X113158Y297373*
X113092Y297214*
X113069Y297045*
X113078Y296936*
X113106Y296830*
X113151Y296730*
X113212Y296641*
X113291Y296564*
X113378Y296495*
X113688Y296302*
X113998Y296110*
X113822Y295791*
X113645Y295473*
X113200Y294555*
X112794Y293621*
X112437Y292593*
X112160Y291539*
X111935Y290393*
X111750Y289239*
X111717Y288971*
X111683Y288703*
X111420Y288644*
X111156Y288586*
X111023Y288552*
X110891Y288513*
X110761Y288469*
X110635Y288418*
X110512Y288360*
X110390Y288299*
X110234Y288215*
X110078Y288130*
X109947Y288009*
X109815Y287891*
X109369Y287329*
X108996Y286729*
X108734Y285996*
X108610Y285217*
X108595Y284355*
X108696Y283502*
X108976Y282485*
X109437Y281535*
X109994Y280807*
X110700Y280229*
X111480Y279880*
X112320Y279756*
X112420Y279756*
X112520Y279762*
X112621Y279769*
X112722Y279780*
X112823Y279794*
X112924Y279812*
X112945Y279816*
X112966Y279822*
X112987Y279826*
X113008Y279832*
X113030Y279837*
X113051Y279844*
X137629Y281855D02*
X137804Y281941D01*
X137934Y282127*
X138103Y282489*
X138214Y282844*
X138330Y283344*
X138413Y283864*
X138457Y284399*
X138467Y284920*
X138446Y285291*
X138362Y285689*
X138274Y285899*
X138120Y286007*
X138102Y286007D02*
X137940Y285879D01*
X137798Y285736*
X137621Y285400*
X137518Y285019*
X137406Y284508*
X137320Y283999*
X137274Y283467*
X137265Y282942*
X137285Y282570*
X137369Y282174*
X137457Y281966*
X137610Y281856*
D02*
D107*
X38313Y182041D02*
X40774Y176136D01*
X43234Y182041*
X47663Y176136D02*
X49632D01*
X48648D02*
Y182041D01*
X47663D02*
X49632D01*
X54061Y176136D02*
Y182041D01*
X57506*
X58490Y181549*
X58982Y180565*
X58490Y179581*
X57506Y179089*
X54061*
X57506D02*
X58982Y176136D01*
X64396D02*
Y182041D01*
X61935D02*
X66856D01*
X69809D02*
Y177612D01*
X70301Y176628*
X71285Y176136*
X73254*
X74238Y176628*
X74730Y177612*
Y182041*
X77683Y176136D02*
X80144Y182041D01*
X82604Y176136*
X78667Y178596D02*
X81620D01*
X85557Y182041D02*
Y176136D01*
X90478*
X38313Y166687D02*
X40774Y172593D01*
X43234Y166687*
X39297Y169148D02*
X42250D01*
X46187Y166687D02*
Y172593D01*
X51108Y166687*
Y172593*
X54061Y166687D02*
X56522Y172593D01*
X58982Y166687*
X55045Y169148D02*
X57998D01*
X61935Y172593D02*
Y166687D01*
X66856*
X69809Y168656D02*
Y170624D01*
X70301Y171608*
X70793Y172100*
X71778Y172593*
X72762*
X73746Y172100*
X74238Y171608*
X74730Y170624*
Y168656*
X74238Y167671*
X73746Y167179*
X72762Y166687*
X71778*
X70793Y167179*
X70301Y167671*
X69809Y168656*
X81128Y169148D02*
X82604D01*
Y168656*
X82112Y167671*
X81620Y167179*
X80636Y166687*
X79652*
X78667Y167179*
X78175Y167671*
X77683Y168656*
Y170624*
X78175Y171608*
X78667Y172100*
X79652Y172593*
X80636*
X81620Y172100*
X82112Y171608*
X82604Y170624*
X38313Y158715D02*
X38805Y157730D01*
X39789Y157238*
X41758*
X42742Y157730*
X43234Y158715*
X42742Y159699*
X41758Y160191*
X39789*
X38805Y160683*
X38313Y161667*
X38805Y162652*
X39789Y163144*
X41758*
X42742Y162652*
X43234Y161667*
X48648Y157238D02*
Y160191D01*
X46187Y163144*
X48648Y160191D02*
X51108Y163144D01*
X54061Y157238D02*
Y163144D01*
X58982Y157238*
Y163144*
X64396Y157238D02*
Y163144D01*
X61935D02*
X66856D01*
X69809Y157238D02*
Y163144D01*
Y160191D02*
X74730D01*
Y157238D02*
Y163144D01*
X0Y0D02*
M02*
