G04 EasyPC Gerber Version 21.0.3 Build 4286 *
G04 #@! TF.Part,Single*
G04 #@! TF.FileFunction,Copper,L1,Top *
G04 #@! TF.FilePolarity,Positive *
%FSLAX35Y35*%
%MOIN*%
%ADD29C,0.00500*%
%ADD75C,0.01000*%
G04 #@! TA.AperFunction,WasherPad*
%ADD103C,0.19685*%
X0Y0D02*
D02*
D29*
X346569Y322642D02*
X336493D01*
G75*
G02X346183Y311638I-1402J-11004*
G01*
G75*
G02X323998I-11093*
G01*
G75*
G02X333689Y322642I11093*
G01*
X28340*
Y59634*
X346569*
Y322642*
X28722Y71481D02*
G75*
G02X50907I11093D01*
G01*
G75*
G02X28722I-11093*
G01*
X29116Y311244D02*
G75*
G02X51301I11093D01*
G01*
G75*
G02X29116I-11093*
G01*
X323604Y71874D02*
G75*
G02X345789I11093D01*
G01*
G75*
G02X323604I-11093*
G01*
X345782Y71481D02*
G36*
G75*
G02X323611I-11085J394D01*
G01*
X50907*
G75*
G02X28722I-11093*
G01*
X28590*
Y59884*
X346319*
Y71481*
X345782*
G37*
X346176Y311244D02*
G36*
G75*
G02X324005I-11085J394D01*
G01*
X51301*
G75*
G02X29116I-11093*
G01*
X28590*
Y71481*
X28722*
G75*
G02X50907I11093*
G01*
X323611*
G75*
G02X323604Y71874I11091J396*
G01*
G75*
G02X345789I11093*
G01*
G75*
G02X345782Y71481I-11098J3*
G01*
X346319*
Y311244*
X346176*
G37*
X324005D02*
G36*
G75*
G02X323998Y311638I11091J396D01*
G01*
G75*
G02X332370Y322392I11093J0*
G01*
X28590*
Y311244*
X29116*
G75*
G02X51301I11093*
G01*
X324005*
G37*
X346176D02*
G36*
X346319D01*
Y322392*
X337811*
G75*
G02X346183Y311638I-2721J-10754*
G01*
G75*
G02X346176Y311244I-11098J3*
G01*
G37*
D02*
D75*
X33209Y64874D02*
X31794Y63460D01*
X33209Y78087D02*
X31794Y79501D01*
X33602Y304638D02*
X32188Y303224D01*
X33602Y317851D02*
X32188Y319265D01*
X46421Y64874D02*
X47835Y63460D01*
X46421Y78087D02*
X47835Y79501D01*
X46815Y304638D02*
X48229Y303224D01*
X46815Y317851D02*
X48229Y319265D01*
X325354Y71874D02*
X323354D01*
X328484Y305032D02*
X327070Y303618D01*
X328484Y318244D02*
X327070Y319659D01*
X334697Y62532D02*
Y60532D01*
Y81217D02*
Y83217D01*
X341697Y305032D02*
X343111Y303618D01*
X341697Y318244D02*
X343111Y319659D01*
X344039Y71874D02*
X346039D01*
D02*
D103*
X39815Y71481D03*
X40209Y311244D03*
X334697Y71874D03*
X335091Y311638D03*
X0Y0D02*
M02*
