G04 EasyPC Gerber Version 21.0.3 Build 4286 *
G04 #@! TF.Part,Single*
G04 #@! TF.FileFunction,Copper,L2,Bot *
G04 #@! TF.FilePolarity,Positive *
%FSLAX35Y35*%
%MOIN*%
G04 #@! TA.AperFunction,ComponentPad*
%ADD16R,0.04528X0.04528*%
%ADD23R,0.05000X0.05000*%
%ADD11R,0.05020X0.05020*%
%ADD21R,0.05500X0.05500*%
%ADD20R,0.06000X0.06000*%
G04 #@! TD.AperFunction*
%ADD28C,0.01500*%
G04 #@! TA.AperFunction,ComponentPad*
%ADD17C,0.04528*%
G04 #@! TA.AperFunction,ViaPad*
%ADD27C,0.04800*%
G04 #@! TA.AperFunction,ComponentPad*
%ADD24C,0.05000*%
%ADD12C,0.05020*%
%ADD22C,0.05500*%
G04 #@! TA.AperFunction,ViaPad*
%ADD25C,0.05600*%
G04 #@! TA.AperFunction,ComponentPad*
%AMT108*0 Rounded Rectangle Pad at angle 90*4,1,32,0.11000,-0.02500,0.11000,0.02500,0.10987,0.02611,0.10950,0.02717,0.10891,0.02812,0.10812,0.02891,0.10717,0.02950,0.10611,0.02987,0.10500,0.03000,-0.10500,0.03000,-0.10611,0.02987,-0.10717,0.02950,-0.10812,0.02891,-0.10891,0.02812,-0.10950,0.02717,-0.10987,0.02611,-0.11000,0.02500,-0.11000,-0.02500,-0.10987,-0.02611,-0.10950,-0.02717,-0.10891,-0.02812,-0.10812,-0.02891,-0.10717,-0.02950,-0.10611,-0.02987,-0.10500,-0.03000,0.10500,-0.03000,0.10611,-0.02987,0.10717,-0.02950,0.10812,-0.02891,0.10891,-0.02812,0.10950,-0.02717,0.10987,-0.02611,0.11000,-0.02500,0*%
%ADD108T108*%
%ADD104O,0.13780X0.08661*%
G04 #@! TA.AperFunction,SMDPad*
%ADD14R,0.07480X0.05118*%
G04 #@! TA.AperFunction,ComponentPad*
%ADD105C,0.15748*%
G04 #@! TA.AperFunction,WasherPad*
%ADD103C,0.19685*%
X0Y0D02*
D02*
D11*
X312329Y288045D03*
D02*
D12*
X242329D03*
Y298045D03*
X252329Y288045D03*
Y298045D03*
X262329Y288045D03*
Y298045D03*
X272329Y288045D03*
Y298045D03*
X282329Y288045D03*
Y298045D03*
X292329Y288045D03*
Y298045D03*
X302329Y288045D03*
Y298045D03*
X312329D03*
D02*
D14*
X107171Y250841D03*
Y289817D03*
X117171Y250841D03*
Y289817D03*
X127171Y250841D03*
Y289817D03*
X137171Y250841D03*
Y289817D03*
D02*
D16*
X88707Y246313D03*
D02*
D17*
Y288439D03*
D02*
D20*
X268234Y242376D03*
Y252376D03*
Y262376D03*
Y272376D03*
D02*
D21*
X64297Y286873D03*
X77289Y243154D03*
D02*
D22*
X64297Y243163D03*
X77289Y286864D03*
D02*
D23*
X250911Y268281D03*
D02*
D24*
X64297Y243163D02*
Y241589D01*
X70990Y234896*
Y106785*
X63904Y99699*
X41463*
X64297Y243163D02*
X59967D01*
X56030Y247100*
X41699*
X41463Y247337*
X107171Y250841D02*
Y262494D01*
X101699Y267967*
X65085*
X64297Y267179*
Y243163*
X107171Y250841D02*
Y247140D01*
X113904Y240407*
X233589*
X236344Y243163*
Y267179*
X137171Y250841D02*
X154455D01*
X236344Y267179D02*
X249809D01*
X250911Y268281*
Y248281D03*
Y268281D02*
X256738D01*
X261148Y272691*
X267919*
X268234Y272376*
X312329Y298045D02*
Y304581D01*
X311148Y305762*
X234376*
D02*
D25*
X154455Y250841D03*
X234376Y305762D03*
X236344Y267179D03*
D02*
D27*
X79258Y109699D03*
X83982Y117967D03*
X170596Y294738D03*
X272329Y280565D03*
X300518Y276234D03*
D02*
D28*
X63904Y273872D02*
X131502D01*
X64297Y286873D02*
Y274266D01*
X63904Y273872*
X77289Y286864D02*
Y295919D01*
X80045Y298675*
X120203*
X121384Y297494*
Y294030*
X117171Y289817*
X83982Y117967D02*
X87132Y114817D01*
Y64423*
X91069Y60486*
X300518*
X305636Y65604*
Y90801*
X312329Y97494*
X334770*
X340675Y103400*
Y260880*
X336738Y264817*
X305242*
X300518Y269541*
Y276234*
X127171Y250841D02*
Y262455D01*
X131502*
Y273872*
X127171Y289817D02*
Y278990D01*
X95400*
X94612Y279778*
Y282533*
X88707Y288439*
X170596Y294738D02*
X131620D01*
X130833Y293951*
Y293478*
X127171Y289817*
X262329Y288045D02*
Y286077D01*
X258785Y282533*
X237132*
X228470Y273872*
X131502*
X272329Y288045D02*
Y280565D01*
X282329Y288045D02*
Y264344D01*
X280833Y262848*
X268707*
X268234Y262376*
X292329Y288045D02*
Y258596D01*
X286738Y253006*
X269652*
X269022Y252376*
X268234*
X302329Y288045D02*
Y283715D01*
X307211*
Y274423*
X310911Y270722*
X339100*
X345400Y264423*
Y98675*
X339494Y92770*
X313904*
X310754Y89620*
Y60486*
X303274Y53006*
X85557*
X79258Y59305*
Y109699*
D02*
D103*
X44020Y57903D03*
X44413Y297667D03*
X56790Y221823D03*
X56850Y77556D03*
X324613Y221849D03*
X324620Y77356D03*
X338902Y58296D03*
X339295Y298060D03*
D02*
D104*
X157604Y264423D03*
X167447Y254581D03*
Y303793D03*
X177289D03*
X187132Y264423D03*
X196974Y303793D03*
X206817Y254581D03*
Y303793D03*
X216659Y264423D03*
D02*
D105*
X157604Y284108D03*
X216659D03*
D02*
D108*
X41463Y99699D03*
Y109699D03*
Y119778D03*
Y129778D03*
Y247337D03*
Y257337D03*
Y267022D03*
Y277022D03*
X0Y0D02*
M02*
