G04 EasyPC Gerber Version 21.0.3 Build 4286 *
G04 #@! TF.Part,Single*
G04 #@! TF.FileFunction,Drillmap *
G04 #@! TF.FilePolarity,Positive *
%FSLAX35Y35*%
%MOIN*%
%ADD29C,0.00500*%
G04 #@! TA.AperFunction,ComponentPad*
%ADD99C,0.10000*%
X0Y0D02*
D02*
D29*
X53650Y107199D02*
X54588D01*
Y106886*
X54275Y106261*
X53963Y105949*
X53338Y105636*
X52713*
X52088Y105949*
X51775Y106261*
X51463Y106886*
Y108136*
X51775Y108761*
X52088Y109074*
X52713Y109386*
X53338*
X53963Y109074*
X54275Y108761*
X54588Y108136*
X53650Y117199D02*
X54588D01*
Y116886*
X54275Y116261*
X53963Y115949*
X53338Y115636*
X52713*
X52088Y115949*
X51775Y116261*
X51463Y116886*
Y118136*
X51775Y118761*
X52088Y119074*
X52713Y119386*
X53338*
X53963Y119074*
X54275Y118761*
X54588Y118136*
X53650Y127278D02*
X54588D01*
Y126965*
X54275Y126340*
X53963Y126028*
X53338Y125715*
X52713*
X52088Y126028*
X51775Y126340*
X51463Y126965*
Y128215*
X51775Y128840*
X52088Y129153*
X52713Y129465*
X53338*
X53963Y129153*
X54275Y128840*
X54588Y128215*
X53650Y137278D02*
X54588D01*
Y136965*
X54275Y136340*
X53963Y136028*
X53338Y135715*
X52713*
X52088Y136028*
X51775Y136340*
X51463Y136965*
Y138215*
X51775Y138840*
X52088Y139153*
X52713Y139465*
X53338*
X53963Y139153*
X54275Y138840*
X54588Y138215*
X53650Y254837D02*
X54588D01*
Y254524*
X54275Y253899*
X53963Y253587*
X53338Y253274*
X52713*
X52088Y253587*
X51775Y253899*
X51463Y254524*
Y255774*
X51775Y256399*
X52088Y256712*
X52713Y257024*
X53338*
X53963Y256712*
X54275Y256399*
X54588Y255774*
X53650Y264837D02*
X54588D01*
Y264524*
X54275Y263899*
X53963Y263587*
X53338Y263274*
X52713*
X52088Y263587*
X51775Y263899*
X51463Y264524*
Y265774*
X51775Y266399*
X52088Y266712*
X52713Y267024*
X53338*
X53963Y266712*
X54275Y266399*
X54588Y265774*
X53650Y274522D02*
X54588D01*
Y274209*
X54275Y273584*
X53963Y273272*
X53338Y272959*
X52713*
X52088Y273272*
X51775Y273584*
X51463Y274209*
Y275459*
X51775Y276084*
X52088Y276397*
X52713Y276709*
X53338*
X53963Y276397*
X54275Y276084*
X54588Y275459*
X53650Y284522D02*
X54588D01*
Y284209*
X54275Y283584*
X53963Y283272*
X53338Y282959*
X52713*
X52088Y283272*
X51775Y283584*
X51463Y284209*
Y285459*
X51775Y286084*
X52088Y286397*
X52713Y286709*
X53338*
X53963Y286397*
X54275Y286084*
X54588Y285459*
X54020Y63840D02*
X55582Y67590D01*
X57145Y63840*
X54645Y65403D02*
X56520D01*
X54413Y303604D02*
X55976Y307354D01*
X57539Y303604*
X55039Y305167D02*
X56913D01*
X66790Y227760D02*
X68353Y231510D01*
X69915Y227760*
X67415Y229323D02*
X69290D01*
X66850Y83494D02*
X68413Y87244D01*
X69976Y83494*
X67476Y85056D02*
X69350D01*
X76485Y250663D02*
X77422D01*
Y250351*
X77110Y249726*
X76797Y249413*
X76172Y249101*
X75547*
X74922Y249413*
X74610Y249726*
X74297Y250351*
Y251601*
X74610Y252226*
X74922Y252539*
X75547Y252851*
X76172*
X76797Y252539*
X77110Y252226*
X77422Y251601*
X76485Y294373D02*
X77422D01*
Y294061*
X77110Y293436*
X76797Y293123*
X76172Y292811*
X75547*
X74922Y293123*
X74610Y293436*
X74297Y294061*
Y295311*
X74610Y295936*
X74922Y296248*
X75547Y296561*
X76172*
X76797Y296248*
X77110Y295936*
X77422Y295311*
X89477Y250654D02*
X90415D01*
Y250342*
X90102Y249717*
X89789Y249404*
X89165Y249092*
X88539*
X87915Y249404*
X87602Y249717*
X87289Y250342*
Y251592*
X87602Y252217*
X87915Y252530*
X88539Y252842*
X89165*
X89789Y252530*
X90102Y252217*
X90415Y251592*
X89477Y294364D02*
X90415D01*
Y294052*
X90102Y293427*
X89789Y293114*
X89165Y292802*
X88539*
X87915Y293114*
X87602Y293427*
X87289Y294052*
Y295302*
X87602Y295927*
X87915Y296239*
X88539Y296552*
X89165*
X89789Y296239*
X90102Y295927*
X90415Y295302*
X89258Y116574D02*
X89570Y115949D01*
X90195Y115636*
X91445*
X92070Y115949*
X92383Y116574*
X92070Y117199*
X91445Y117511*
X90195*
X89570Y117824*
X89258Y118449*
X89570Y119074*
X90195Y119386*
X91445*
X92070Y119074*
X92383Y118449*
X93982Y124842D02*
X94295Y124217D01*
X94920Y123904*
X96170*
X96795Y124217*
X97107Y124842*
X96795Y125467*
X96170Y125779*
X94920*
X94295Y126092*
X93982Y126717*
X94295Y127342*
X94920Y127654*
X96170*
X96795Y127342*
X97107Y126717*
X98707Y252250D02*
X100269Y256000D01*
X101832Y252250*
X99332Y253813D02*
X101207D01*
X103707Y252250D02*
X105269Y256000D01*
X106832Y252250*
X104332Y253813D02*
X106207D01*
X98707Y294376D02*
X100269Y298126D01*
X101832Y294376*
X99332Y295939D02*
X101207D01*
X103707Y294376D02*
X105269Y298126D01*
X106832Y294376*
X104332Y295939D02*
X106207D01*
X164455Y256778D02*
Y260528D01*
X166642*
X167267Y260216*
X167580Y259591*
X167267Y258966*
X166642Y258653*
X164455*
X167604Y270361D02*
Y274111D01*
Y272236D02*
X168542D01*
X170730Y274111*
X168542Y272236D02*
X170730Y270361D01*
X167604Y293796D02*
Y290046D01*
X170730*
X177447Y260518D02*
Y264268D01*
Y262393D02*
X178384D01*
X180572Y264268*
X178384Y262393D02*
X180572Y260518D01*
X177447Y309731D02*
Y313481D01*
Y311606D02*
X178384D01*
X180572Y313481*
X178384Y311606D02*
X180572Y309731D01*
X180596Y301613D02*
X180909Y300988D01*
X181534Y300676*
X182784*
X183409Y300988*
X183722Y301613*
X183409Y302238*
X182784Y302551*
X181534*
X180909Y302863*
X180596Y303488*
X180909Y304113*
X181534Y304426*
X182784*
X183409Y304113*
X183722Y303488*
X187289Y309731D02*
Y313481D01*
Y311606D02*
X188227D01*
X190415Y313481*
X188227Y311606D02*
X190415Y309731D01*
X197132Y270361D02*
Y274111D01*
Y272236D02*
X198069D01*
X200257Y274111*
X198069Y272236D02*
X200257Y270361D01*
X206974Y309731D02*
Y313481D01*
Y311606D02*
X207912D01*
X210100Y313481*
X207912Y311606D02*
X210100Y309731D01*
X216817Y260518D02*
Y264268D01*
Y262393D02*
X217754D01*
X219942Y264268*
X217754Y262393D02*
X219942Y260518D01*
X216817Y309731D02*
Y313481D01*
Y311606D02*
X217754D01*
X219942Y313481*
X217754Y311606D02*
X219942Y309731D01*
X226659Y270361D02*
Y274111D01*
Y272236D02*
X227597D01*
X229785Y274111*
X227597Y272236D02*
X229785Y270361D01*
X226659Y290046D02*
Y293796D01*
X228222Y291921*
X229785Y293796*
Y290046*
X244376Y311699D02*
Y315449D01*
X246563*
X247189Y315137*
X247501Y314512*
X247189Y313887*
X246563Y313574*
X244376*
X246344Y273117D02*
Y276867D01*
X248532*
X249157Y276554*
X249470Y275929*
X249157Y275304*
X248532Y274992*
X246344*
X252329Y295233D02*
Y296483D01*
X252641Y297108*
X252954Y297420*
X253579Y297733*
X254204*
X254829Y297420*
X255141Y297108*
X255454Y296483*
Y295233*
X255141Y294608*
X254829Y294295*
X254204Y293983*
X253579*
X252954Y294295*
X252641Y294608*
X252329Y295233*
X254516Y294920D02*
X255454Y293983D01*
X252329Y305233D02*
Y306483D01*
X252641Y307108*
X252954Y307420*
X253579Y307733*
X254204*
X254829Y307420*
X255141Y307108*
X255454Y306483*
Y305233*
X255141Y304608*
X254829Y304295*
X254204Y303983*
X253579*
X252954Y304295*
X252641Y304608*
X252329Y305233*
X254516Y304920D02*
X255454Y303983D01*
X260911Y254844D02*
X261224Y254531D01*
X261849Y254219*
X262474Y254531*
X262787Y254844*
Y257969*
X263411*
X262787D02*
X261537D01*
X260911Y274844D02*
X261224Y274531D01*
X261849Y274219*
X262474Y274531*
X262787Y274844*
Y277969*
X263411*
X262787D02*
X261537D01*
X262329Y295233D02*
Y296483D01*
X262641Y297108*
X262954Y297420*
X263579Y297733*
X264204*
X264829Y297420*
X265141Y297108*
X265454Y296483*
Y295233*
X265141Y294608*
X264829Y294295*
X264204Y293983*
X263579*
X262954Y294295*
X262641Y294608*
X262329Y295233*
X264516Y294920D02*
X265454Y293983D01*
X262329Y305233D02*
Y306483D01*
X262641Y307108*
X262954Y307420*
X263579Y307733*
X264204*
X264829Y307420*
X265141Y307108*
X265454Y306483*
Y305233*
X265141Y304608*
X264829Y304295*
X264204Y303983*
X263579*
X262954Y304295*
X262641Y304608*
X262329Y305233*
X264516Y304920D02*
X265454Y303983D01*
X272329Y295233D02*
Y296483D01*
X272641Y297108*
X272954Y297420*
X273579Y297733*
X274204*
X274829Y297420*
X275141Y297108*
X275454Y296483*
Y295233*
X275141Y294608*
X274829Y294295*
X274204Y293983*
X273579*
X272954Y294295*
X272641Y294608*
X272329Y295233*
X274516Y294920D02*
X275454Y293983D01*
X272329Y305233D02*
Y306483D01*
X272641Y307108*
X272954Y307420*
X273579Y307733*
X274204*
X274829Y307420*
X275141Y307108*
X275454Y306483*
Y305233*
X275141Y304608*
X274829Y304295*
X274204Y303983*
X273579*
X272954Y304295*
X272641Y304608*
X272329Y305233*
X274516Y304920D02*
X275454Y303983D01*
X280422Y249876D02*
X281359D01*
Y249563*
X281047Y248939*
X280734Y248626*
X280109Y248313*
X279484*
X278859Y248626*
X278547Y248939*
X278234Y249563*
Y250813*
X278547Y251439*
X278859Y251751*
X279484Y252063*
X280109*
X280734Y251751*
X281047Y251439*
X281359Y250813*
X280422Y259876D02*
X281359D01*
Y259563*
X281047Y258939*
X280734Y258626*
X280109Y258313*
X279484*
X278859Y258626*
X278547Y258939*
X278234Y259563*
Y260813*
X278547Y261439*
X278859Y261751*
X279484Y262063*
X280109*
X280734Y261751*
X281047Y261439*
X281359Y260813*
X280422Y269876D02*
X281359D01*
Y269563*
X281047Y268939*
X280734Y268626*
X280109Y268313*
X279484*
X278859Y268626*
X278547Y268939*
X278234Y269563*
Y270813*
X278547Y271439*
X278859Y271751*
X279484Y272063*
X280109*
X280734Y271751*
X281047Y271439*
X281359Y270813*
X280422Y279876D02*
X281359D01*
Y279563*
X281047Y278939*
X280734Y278626*
X280109Y278313*
X279484*
X278859Y278626*
X278547Y278939*
X278234Y279563*
Y280813*
X278547Y281439*
X278859Y281751*
X279484Y282063*
X280109*
X280734Y281751*
X281047Y281439*
X281359Y280813*
X282329Y287440D02*
X282641Y286815D01*
X283266Y286502*
X284516*
X285141Y286815*
X285454Y287440*
X285141Y288065*
X284516Y288378*
X283266*
X282641Y288690*
X282329Y289315*
X282641Y289940*
X283266Y290252*
X284516*
X285141Y289940*
X285454Y289315*
X282329Y295233D02*
Y296483D01*
X282641Y297108*
X282954Y297420*
X283579Y297733*
X284204*
X284829Y297420*
X285141Y297108*
X285454Y296483*
Y295233*
X285141Y294608*
X284829Y294295*
X284204Y293983*
X283579*
X282954Y294295*
X282641Y294608*
X282329Y295233*
X284516Y294920D02*
X285454Y293983D01*
X282329Y305233D02*
Y306483D01*
X282641Y307108*
X282954Y307420*
X283579Y307733*
X284204*
X284829Y307420*
X285141Y307108*
X285454Y306483*
Y305233*
X285141Y304608*
X284829Y304295*
X284204Y303983*
X283579*
X282954Y304295*
X282641Y304608*
X282329Y305233*
X284516Y304920D02*
X285454Y303983D01*
X292329Y295233D02*
Y296483D01*
X292641Y297108*
X292954Y297420*
X293579Y297733*
X294204*
X294829Y297420*
X295141Y297108*
X295454Y296483*
Y295233*
X295141Y294608*
X294829Y294295*
X294204Y293983*
X293579*
X292954Y294295*
X292641Y294608*
X292329Y295233*
X294516Y294920D02*
X295454Y293983D01*
X292329Y305233D02*
Y306483D01*
X292641Y307108*
X292954Y307420*
X293579Y307733*
X294204*
X294829Y307420*
X295141Y307108*
X295454Y306483*
Y305233*
X295141Y304608*
X294829Y304295*
X294204Y303983*
X293579*
X292954Y304295*
X292641Y304608*
X292329Y305233*
X294516Y304920D02*
X295454Y303983D01*
X302329Y295233D02*
Y296483D01*
X302641Y297108*
X302954Y297420*
X303579Y297733*
X304204*
X304829Y297420*
X305141Y297108*
X305454Y296483*
Y295233*
X305141Y294608*
X304829Y294295*
X304204Y293983*
X303579*
X302954Y294295*
X302641Y294608*
X302329Y295233*
X304516Y294920D02*
X305454Y293983D01*
X302329Y305233D02*
Y306483D01*
X302641Y307108*
X302954Y307420*
X303579Y307733*
X304204*
X304829Y307420*
X305141Y307108*
X305454Y306483*
Y305233*
X305141Y304608*
X304829Y304295*
X304204Y303983*
X303579*
X302954Y304295*
X302641Y304608*
X302329Y305233*
X304516Y304920D02*
X305454Y303983D01*
X310518Y283109D02*
X310830Y282484D01*
X311455Y282172*
X312705*
X313330Y282484*
X313643Y283109*
X313330Y283734*
X312705Y284047*
X311455*
X310830Y284359*
X310518Y284984*
X310830Y285609*
X311455Y285922*
X312705*
X313330Y285609*
X313643Y284984*
X312329Y295233D02*
Y296483D01*
X312641Y297108*
X312954Y297420*
X313579Y297733*
X314204*
X314829Y297420*
X315141Y297108*
X315454Y296483*
Y295233*
X315141Y294608*
X314829Y294295*
X314204Y293983*
X313579*
X312954Y294295*
X312641Y294608*
X312329Y295233*
X314516Y294920D02*
X315454Y293983D01*
X312329Y305233D02*
Y306483D01*
X312641Y307108*
X312954Y307420*
X313579Y307733*
X314204*
X314829Y307420*
X315141Y307108*
X315454Y306483*
Y305233*
X315141Y304608*
X314829Y304295*
X314204Y303983*
X313579*
X312954Y304295*
X312641Y304608*
X312329Y305233*
X314516Y304920D02*
X315454Y303983D01*
X322329Y295233D02*
Y296483D01*
X322641Y297108*
X322954Y297420*
X323579Y297733*
X324204*
X324829Y297420*
X325141Y297108*
X325454Y296483*
Y295233*
X325141Y294608*
X324829Y294295*
X324204Y293983*
X323579*
X322954Y294295*
X322641Y294608*
X322329Y295233*
X324516Y294920D02*
X325454Y293983D01*
X322329Y305233D02*
Y306483D01*
X322641Y307108*
X322954Y307420*
X323579Y307733*
X324204*
X324829Y307420*
X325141Y307108*
X325454Y306483*
Y305233*
X325141Y304608*
X324829Y304295*
X324204Y303983*
X323579*
X322954Y304295*
X322641Y304608*
X322329Y305233*
X324516Y304920D02*
X325454Y303983D01*
X334613Y227786D02*
X336176Y231536D01*
X337738Y227786*
X335238Y229349D02*
X337113D01*
X334620Y83294D02*
X336183Y87044D01*
X337746Y83294*
X335246Y84856D02*
X337120D01*
X348902Y64234D02*
X350464Y67984D01*
X352027Y64234*
X349527Y65796D02*
X351402D01*
X349295Y303998D02*
X350858Y307748D01*
X352420Y303998*
X349920Y305560D02*
X351795D01*
D02*
D99*
X41463Y99699D03*
Y109699D03*
Y119778D03*
Y129778D03*
Y247337D03*
Y257337D03*
Y267022D03*
Y277022D03*
X44020Y57903D03*
X44413Y297667D03*
X56790Y221823D03*
X56850Y77556D03*
X64297Y243163D03*
Y286873D03*
X77289Y243154D03*
Y286864D03*
X79258Y109699D03*
X83982Y117967D03*
X88707Y246313D03*
Y288439D03*
X154455Y250841D03*
X157604Y264423D03*
Y284108D03*
X167447Y254581D03*
Y303793D03*
X170596Y294738D03*
X177289Y303793D03*
X187132Y264423D03*
X196974Y303793D03*
X206817Y254581D03*
Y303793D03*
X216659Y264423D03*
Y284108D03*
X234376Y305762D03*
X236344Y267179D03*
X242329Y288045D03*
Y298045D03*
X250911Y248281D03*
Y268281D03*
X252329Y288045D03*
Y298045D03*
X262329Y288045D03*
Y298045D03*
X268234Y242376D03*
Y252376D03*
Y262376D03*
Y272376D03*
X272329Y280565D03*
Y288045D03*
Y298045D03*
X282329Y288045D03*
Y298045D03*
X292329Y288045D03*
Y298045D03*
X300518Y276234D03*
X302329Y288045D03*
Y298045D03*
X312329Y288045D03*
Y298045D03*
X324613Y221849D03*
X324620Y77356D03*
X338902Y58296D03*
X339295Y298060D03*
X0Y0D02*
M02*
