G04 EasyPC Gerber Version 21.0.3 Build 4286 *
G04 #@! TF.Part,Single*
G04 #@! TF.FileFunction,Legend,Bot *
G04 #@! TF.FilePolarity,Positive *
%FSLAX35Y35*%
%MOIN*%
%ADD77C,0.00300*%
%ADD72C,0.00394*%
%ADD29C,0.00500*%
%ADD76C,0.00600*%
%ADD74C,0.00787*%
%ADD75C,0.01000*%
X0Y0D02*
D02*
D29*
X89344Y300250D02*
X85594D01*
Y298375*
X85906Y297750*
X86219Y297437*
X86844Y297125*
X88094*
X88719Y297437*
X89031Y297750*
X89344Y298375*
Y300250*
Y294625D02*
Y293375D01*
Y294000D02*
X85594D01*
X86219Y294625*
X94250Y167179D02*
X34014D01*
Y158911*
X94250*
Y167179*
Y175053D02*
X34014D01*
Y167179*
X94250*
Y175053*
Y182927D02*
X34014D01*
Y175053*
X94250*
Y182927*
X142644Y243382D02*
Y244632D01*
X142331Y245257*
X142019Y245570*
X141394Y245882*
X140769*
X140144Y245570*
X139831Y245257*
X139519Y244632*
Y243382*
X139831Y242757*
X140144Y242445*
X140769Y242132*
X141394*
X142019Y242445*
X142331Y242757*
X142644Y243382*
X140456Y243070D02*
X139519Y242132D01*
X137019D02*
X135769D01*
X136394D02*
Y245882D01*
X137019Y245257*
X145400Y310880D02*
Y248281D01*
X228864*
Y310880*
X145400*
X155636Y243151D02*
X155323Y242839D01*
X154698Y242526*
X154073Y242839*
X153761Y243151*
Y246276*
X153136*
X153761D02*
X155011D01*
X150636Y242839D02*
X150011Y242526D01*
X149073*
X148448Y242839*
X148136Y243464*
Y243776*
X148448Y244401*
X149073Y244714*
X150636*
Y246276*
X148136*
X273746Y229534D02*
Y233284D01*
X271559*
X270933Y232972*
X270621Y232346*
X270933Y231722*
X271559Y231409*
X273746*
X268746Y233284D02*
Y229534D01*
X265621*
X263121D02*
X261871D01*
X262496D02*
Y233284D01*
X263121Y232659*
X315478Y278584D02*
X315166Y278272D01*
X314541Y277959*
X313916Y278272*
X313603Y278584*
Y281709*
X312978*
X313603D02*
X314853D01*
X309853Y277959D02*
X308603D01*
X309228D02*
Y281709D01*
X309853Y281084*
D02*
D72*
X91856Y177760D02*
Y180713D01*
Y179236D02*
X89396D01*
Y177760D02*
Y180713D01*
X87919Y177760D02*
X86689Y180713D01*
X85459Y177760*
X87427Y178990D02*
X85951D01*
X83982Y177760D02*
Y180713D01*
X81522Y177760*
Y180713*
X80045Y178498D02*
X79799Y178006D01*
X79307Y177760*
X78323*
X77831Y178006*
X77585Y178498*
X77831Y178990*
X78323Y179236*
X79307*
X79799Y179482*
X80045Y179974*
X79799Y180467*
X79307Y180713*
X78323*
X77831Y180467*
X77585Y179974*
X74878Y177760D02*
Y179236D01*
X76108Y180713*
X74878Y179236D02*
X73648Y180713D01*
X68234Y178498D02*
X67988Y178006D01*
X67496Y177760*
X66512*
X66020Y178006*
X65774Y178498*
X66020Y178990*
X66512Y179236*
X67496*
X67988Y179482*
X68234Y179974*
X67988Y180467*
X67496Y180713*
X66512*
X66020Y180467*
X65774Y179974*
X63067Y177760D02*
Y179236D01*
X64297Y180713*
X63067Y179236D02*
X61837Y180713D01*
X60360Y177760D02*
Y180713D01*
X57900Y177760*
Y180713*
X55193Y177760D02*
Y180713D01*
X56423D02*
X53963D01*
X52486Y177760D02*
Y180713D01*
Y179236D02*
X50026D01*
Y177760D02*
Y180713D01*
X92644Y164571D02*
X91413Y161618D01*
X90183Y164571*
X88215Y161618D02*
X87230D01*
X87722D02*
Y164571D01*
X88215Y164079*
X84524Y161618D02*
X84278Y161864D01*
X84524Y162110*
X84770Y161864*
X84524Y161618*
X80587Y161864D02*
X80094Y161618D01*
X79602*
X79110Y161864*
X78864Y162356*
Y163833*
X79110Y164325*
X79602Y164571*
X80094*
X80587Y164325*
X80833Y163833*
Y162356*
X80587Y161864*
X79110Y164325*
X72959Y161618D02*
X70498Y164571D01*
X64839Y161864D02*
X64346Y161618D01*
X63854*
X63362Y161864*
X63116Y162356*
Y163833*
X63362Y164325*
X63854Y164571*
X64346*
X64839Y164325*
X65085Y163833*
Y162356*
X64839Y161864*
X63362Y164325*
X61148Y161864D02*
X60656Y161618D01*
X59917*
X59425Y161864*
X59179Y162356*
Y162602*
X59425Y163094*
X59917Y163341*
X61148*
Y164571*
X59179*
X56965Y161618D02*
X56719Y161864D01*
X56965Y162110*
X57211Y161864*
X56965Y161618*
X53028Y161864D02*
X52535Y161618D01*
X52043*
X51551Y161864*
X51305Y162356*
Y163833*
X51551Y164325*
X52043Y164571*
X52535*
X53028Y164325*
X53274Y163833*
Y162356*
X53028Y161864*
X51551Y164325*
X49337Y161618D02*
X47368Y164571D01*
X49337*
X45154Y161618D02*
X44907Y161864D01*
X45154Y162110*
X45400Y161864*
X45154Y161618*
X39494D02*
X41463D01*
X39740Y163341*
X39494Y163833*
X39740Y164325*
X40232Y164571*
X40970*
X41463Y164325*
X37033Y161618D02*
X36049D01*
X36541D02*
Y164571D01*
X37033Y164079*
X92644Y169492D02*
Y172445D01*
Y170969D02*
X90183D01*
Y169492D02*
Y172445D01*
X88707Y170230D02*
X88461Y169738D01*
X87969Y169492*
X86984*
X86492Y169738*
X86246Y170230*
X86492Y170722*
X86984Y170969*
X87969*
X88461Y171215*
X88707Y171707*
X88461Y172199*
X87969Y172445*
X86984*
X86492Y172199*
X86246Y171707*
X84524Y169738D02*
X84031Y169492D01*
X83539*
X83047Y169738*
X82801Y170230*
Y171707*
X83047Y172199*
X83539Y172445*
X84031*
X84524Y172199*
X84770Y171707*
Y170230*
X84524Y169738*
X83047Y172199*
X78864Y169492D02*
X80833D01*
X79110Y171215*
X78864Y171707*
X79110Y172199*
X79602Y172445*
X80341*
X80833Y172199*
X76404Y169492D02*
X75419D01*
X75911D02*
Y172445D01*
X76404Y171953*
X69022Y170476D02*
Y171461D01*
X68776Y171953*
X68530Y172199*
X68037Y172445*
X67545*
X67053Y172199*
X66807Y171953*
X66561Y171461*
Y170476*
X66807Y169984*
X67053Y169738*
X67545Y169492*
X68037*
X68530Y169738*
X68776Y169984*
X69022Y170476*
X64839Y169492D02*
X64593Y169738D01*
X64839Y169984*
X65085Y169738*
X64839Y169492*
X61148D02*
Y172445D01*
X59425*
X58933Y172199*
X58687Y171707*
X58933Y171215*
X59425Y170969*
X61148*
X56965Y169492D02*
X56719Y169738D01*
X56965Y169984*
X57211Y169738*
X56965Y169492*
X53274Y172445D02*
Y169492D01*
X50813*
X49091D02*
X48844Y169738D01*
X49091Y169984*
X49337Y169738*
X49091Y169492*
X45400D02*
X44169Y172445D01*
X42939Y169492*
X44907Y170722D02*
X43431D01*
X285557Y271067D02*
Y274020D01*
X283835*
X283343Y273774*
X283096Y273281*
X283343Y272789*
X283835Y272543*
X285557*
X283835D02*
X283096Y271067D01*
X281620D02*
Y274020D01*
X279159*
X279652Y272543D02*
X281620D01*
Y271067D02*
X279159D01*
X277683D02*
Y274020D01*
X276207*
X275715Y273774*
X275469Y273528*
X275222Y273035*
Y272051*
X275469Y271559*
X275715Y271313*
X276207Y271067*
X277683*
X288165Y263094D02*
X287673Y262848D01*
X287427Y262356*
X287673Y261864*
X288165Y261618*
X289888*
Y264571*
X288165*
X287673Y264325*
X287427Y263833*
X287673Y263341*
X288165Y263094*
X289888*
X285951Y264571D02*
Y261618D01*
X283490*
X282014Y264571D02*
Y262356D01*
X281768Y261864*
X281276Y261618*
X280291*
X279799Y261864*
X279553Y262356*
Y264571*
X278077Y261618D02*
Y264571D01*
X275616*
X276108Y263094D02*
X278077D01*
Y261618D02*
X275616D01*
X291709Y241835D02*
X291217Y241589D01*
X290970Y241096*
X291217Y240604*
X291709Y240358*
X293431*
Y243311*
X291709*
X291217Y243065*
X290970Y242573*
X291217Y242081*
X291709Y241835*
X293431*
X289494Y243311D02*
Y240358D01*
X287033*
X285557D02*
X284327Y243311D01*
X283096Y240358*
X285065Y241589D02*
X283589D01*
X279159Y240850D02*
X279406Y240604D01*
X279898Y240358*
X280636*
X281128Y240604*
X281374Y240850*
X281620Y241343*
Y242327*
X281374Y242819*
X281128Y243065*
X280636Y243311*
X279898*
X279406Y243065*
X279159Y242819*
X277683Y240358D02*
Y243311D01*
Y241835D02*
X276945D01*
X275222Y243311*
X276945Y241835D02*
X275222Y240358D01*
X295744Y250988D02*
Y252465D01*
X296974Y253941*
X295744Y252465D02*
X294514Y253941D01*
X293037Y250988D02*
Y253941D01*
X290577*
X291069Y252465D02*
X293037D01*
Y250988D02*
X290577D01*
X289100Y253941D02*
Y250988D01*
X286640*
X285163Y253941D02*
Y250988D01*
X282703*
X281226Y251972D02*
Y252957D01*
X280980Y253449*
X280734Y253695*
X280242Y253941*
X279750*
X279258Y253695*
X279012Y253449*
X278766Y252957*
Y251972*
X279012Y251480*
X279258Y251234*
X279750Y250988*
X280242*
X280734Y251234*
X280980Y251480*
X281226Y251972*
X277289Y253941D02*
X277043Y250988D01*
X276059Y252465*
X275075Y250988*
X274829Y253941*
D02*
D74*
X88707Y274864D02*
Y284797D01*
X92093Y259888D02*
Y274864D01*
X85321*
Y259888*
X92093*
Y263274D02*
X88707Y259888D01*
Y249955*
X103163Y284699D02*
Y255959D01*
X141179*
Y284699*
X103163*
X103234Y293557D02*
Y286077D01*
X312329Y276116D02*
X229829D01*
Y310368*
X332368*
Y288045*
D02*
D75*
X263234Y237376D02*
Y277376D01*
X273234*
Y237376*
X263234*
D02*
D76*
X69197Y278219D02*
Y251819D01*
X59397*
Y278219*
X69197*
X72389Y251809D02*
Y278209D01*
X82189*
Y251809*
X72389*
X247226Y249249D02*
G75*
G02X243411Y255781I3685J6532D01*
G01*
Y260781*
G75*
G02X247102Y267242I7500*
G01*
X250911Y273981D02*
G75*
G02Y274581J300D01*
G01*
G75*
G02Y273981J-300*
G01*
X254721Y267242D02*
G75*
G02X258411Y260782I-3810J-6460D01*
G01*
Y255781*
G75*
G02X254596Y249249I-7500*
G01*
D02*
D77*
X66116Y299069D02*
X62366D01*
Y296881*
X62678Y296256*
X63303Y295944*
X63928Y296256*
X64241Y296881*
Y299069*
Y296881D02*
X66116Y295944D01*
Y291569D02*
Y294069D01*
X63928Y291881*
X63303Y291569*
X62678Y291881*
X62366Y292506*
Y293444*
X62678Y294069*
X78714Y299856D02*
X74964D01*
Y297669*
X75276Y297044*
X75902Y296731*
X76526Y297044*
X76839Y297669*
Y299856*
Y297669D02*
X78714Y296731D01*
Y294231D02*
Y292981D01*
Y293606D02*
X74964D01*
X75589Y294231*
X252117Y240395D02*
X252430Y240083D01*
X253055Y239770*
X253992*
X254617Y240083*
X254930Y240395*
X255242Y241020*
Y242270*
X254930Y242895*
X254617Y243208*
X253992Y243520*
X253055*
X252430Y243208*
X252117Y242895*
X249617Y239770D02*
X248367D01*
X248992D02*
Y243520D01*
X249617Y242895*
X0Y0D02*
M02*
